<svg xmlns="http://www.w3.org/2000/svg" xmlns:xlink="http://www.w3.org/1999/xlink" width="1640" zoomAndPan="magnify" viewBox="0 0 1230 693.000001" height="924" preserveAspectRatio="xMidYMid meet" version="1.0"><defs><clipPath id="3a27fa7969"><path d="M 0.886719 0 L 1229.113281 0 L 1229.113281 692 L 0.886719 692 Z M 0.886719 0 " clip-rule="nonzero"/></clipPath><clipPath id="b84694d7bf"><path d="M 244 58.253906 L 987 58.253906 L 987 633 L 244 633 Z M 244 58.253906 " clip-rule="nonzero"/></clipPath></defs><g clip-path="url(#3a27fa7969)"><path fill="#ffffff" d="M 0.886719 0 L 1229.113281 0 L 1229.113281 692 L 0.886719 692 Z M 0.886719 0 " fill-opacity="1" fill-rule="nonzero"/><path fill="#ffffff" d="M 0.886719 0 L 1229.113281 0 L 1229.113281 692 L 0.886719 692 Z M 0.886719 0 " fill-opacity="1" fill-rule="nonzero"/></g><g clip-path="url(#b84694d7bf)"><path fill="#000000" d="M 893.242188 58.167969 L 644.515625 58.167969 C 642.992188 58.164062 641.46875 58.203125 639.945312 58.273438 C 638.421875 58.347656 636.902344 58.457031 635.386719 58.605469 C 633.867188 58.753906 632.355469 58.941406 630.847656 59.160156 C 629.339844 59.382812 627.839844 59.644531 626.34375 59.9375 C 624.847656 60.234375 623.359375 60.566406 621.882812 60.9375 C 620.402344 61.304688 618.933594 61.710938 617.472656 62.148438 C 616.015625 62.589844 614.566406 63.066406 613.132812 63.578125 C 611.695312 64.089844 610.273438 64.636719 608.863281 65.21875 C 607.457031 65.800781 606.0625 66.417969 604.683594 67.066406 C 603.304688 67.71875 601.941406 68.402344 600.597656 69.117188 C 599.253906 69.835938 597.925781 70.585938 596.617188 71.367188 C 595.308594 72.148438 594.023438 72.960938 592.753906 73.808594 C 591.484375 74.652344 590.238281 75.527344 589.011719 76.433594 C 587.789062 77.339844 586.585938 78.277344 585.40625 79.242188 C 584.226562 80.207031 583.074219 81.203125 581.941406 82.222656 C 580.8125 83.246094 579.707031 84.296875 578.628906 85.371094 C 577.550781 86.449219 576.496094 87.550781 575.472656 88.679688 C 574.449219 89.804688 573.453125 90.957031 572.484375 92.136719 C 571.515625 93.3125 570.578125 94.511719 569.667969 95.734375 C 568.757812 96.957031 567.878906 98.203125 567.03125 99.46875 C 566.183594 100.734375 565.367188 102.019531 564.582031 103.324219 C 563.796875 104.632812 563.042969 105.957031 562.324219 107.300781 C 561.605469 108.640625 560.917969 110 560.265625 111.378906 C 559.613281 112.753906 558.992188 114.148438 558.410156 115.554688 C 557.824219 116.960938 557.273438 118.382812 556.757812 119.816406 C 556.246094 121.25 555.765625 122.695312 555.320312 124.152344 C 554.878906 125.609375 554.46875 127.078125 554.097656 128.554688 C 553.726562 130.03125 553.390625 131.519531 553.09375 133.011719 C 552.792969 134.503906 552.53125 136.007812 552.308594 137.511719 C 552.082031 139.019531 551.894531 140.53125 551.742188 142.046875 C 551.59375 143.5625 551.480469 145.082031 551.402344 146.601562 C 551.324219 148.125 551.289062 149.648438 551.285156 151.171875 L 551.285156 202.601562 L 337.636719 202.601562 C 336.113281 202.601562 334.589844 202.640625 333.066406 202.71875 C 331.542969 202.792969 330.023438 202.90625 328.503906 203.058594 C 326.988281 203.210938 325.476562 203.398438 323.964844 203.621094 C 322.457031 203.847656 320.957031 204.109375 319.460938 204.40625 C 317.964844 204.707031 316.480469 205.039062 315 205.410156 C 313.519531 205.785156 312.050781 206.191406 310.59375 206.632812 C 309.132812 207.078125 307.6875 207.558594 306.253906 208.070312 C 304.816406 208.585938 303.394531 209.136719 301.988281 209.71875 C 300.578125 210.304688 299.183594 210.921875 297.808594 211.574219 C 296.429688 212.226562 295.066406 212.914062 293.722656 213.632812 C 292.378906 214.351562 291.054688 215.101562 289.746094 215.886719 C 288.4375 216.671875 287.152344 217.488281 285.882812 218.335938 C 284.617188 219.183594 283.371094 220.058594 282.144531 220.96875 C 280.921875 221.878906 279.71875 222.816406 278.542969 223.78125 C 277.363281 224.75 276.210938 225.746094 275.082031 226.769531 C 273.949219 227.792969 272.847656 228.84375 271.769531 229.921875 C 270.691406 231 269.640625 232.105469 268.617188 233.234375 C 267.59375 234.363281 266.597656 235.519531 265.632812 236.695312 C 264.664062 237.875 263.726562 239.078125 262.820312 240.300781 C 261.910156 241.527344 261.035156 242.769531 260.1875 244.039062 C 259.339844 245.304688 258.527344 246.59375 257.742188 247.902344 C 256.957031 249.207031 256.207031 250.535156 255.488281 251.878906 C 254.769531 253.222656 254.085938 254.585938 253.433594 255.960938 C 252.78125 257.339844 252.164062 258.734375 251.582031 260.140625 C 251 261.550781 250.449219 262.96875 249.9375 264.40625 C 249.421875 265.839844 248.945312 267.289062 248.503906 268.746094 C 248.0625 270.203125 247.65625 271.671875 247.285156 273.152344 C 246.914062 274.628906 246.578125 276.117188 246.28125 277.609375 C 245.984375 279.105469 245.726562 280.605469 245.5 282.113281 C 245.277344 283.621094 245.089844 285.132812 244.941406 286.652344 C 244.792969 288.167969 244.679688 289.6875 244.605469 291.207031 C 244.53125 292.730469 244.492188 294.253906 244.492188 295.777344 L 244.492188 437.042969 C 244.496094 439.820312 244.625 442.589844 244.875 445.359375 C 245.128906 448.125 245.503906 450.875 246 453.605469 C 246.5 456.339844 247.117188 459.046875 247.859375 461.722656 C 248.597656 464.402344 249.457031 467.039062 250.433594 469.640625 C 251.410156 472.242188 252.5 474.792969 253.703125 477.296875 C 254.910156 479.800781 256.222656 482.246094 257.644531 484.632812 C 259.070312 487.019531 260.597656 489.335938 262.226562 491.585938 C 263.859375 493.835938 265.585938 496.007812 267.410156 498.101562 C 269.234375 500.195312 271.152344 502.207031 273.15625 504.128906 C 275.160156 506.054688 277.25 507.882812 279.417969 509.621094 C 281.585938 511.359375 283.828125 512.996094 286.144531 514.53125 C 288.457031 516.070312 290.839844 517.5 293.28125 518.824219 C 295.726562 520.148438 298.222656 521.363281 300.773438 522.460938 C 303.328125 523.5625 305.921875 524.546875 308.5625 525.417969 C 311.203125 526.285156 313.875 527.035156 316.582031 527.664062 C 319.289062 528.296875 322.019531 528.804688 324.773438 529.1875 L 324.773438 619.878906 C 324.777344 621.027344 324.9375 622.152344 325.246094 623.253906 C 325.550781 624.359375 326 625.40625 326.589844 626.390625 C 327.175781 627.375 327.882812 628.265625 328.707031 629.058594 C 329.535156 629.855469 330.449219 630.527344 331.457031 631.078125 C 332.460938 631.628906 333.523438 632.039062 334.640625 632.308594 C 335.753906 632.574219 336.886719 632.691406 338.03125 632.65625 C 339.179688 632.621094 340.300781 632.433594 341.398438 632.097656 C 342.496094 631.765625 343.527344 631.289062 344.5 630.679688 L 503.941406 530.046875 L 586.964844 530.046875 C 588.484375 530.039062 590 529.996094 591.519531 529.914062 C 593.035156 529.832031 594.546875 529.714844 596.058594 529.558594 C 597.570312 529.402344 599.074219 529.210938 600.574219 528.984375 C 602.078125 528.753906 603.570312 528.488281 605.058594 528.1875 C 606.546875 527.882812 608.027344 527.546875 609.5 527.171875 C 610.96875 526.796875 612.433594 526.386719 613.882812 525.941406 C 615.335938 525.496094 616.773438 525.015625 618.203125 524.496094 C 619.628906 523.980469 621.042969 523.429688 622.445312 522.84375 C 623.847656 522.257812 625.230469 521.640625 626.601562 520.984375 C 627.972656 520.332031 629.328125 519.644531 630.664062 518.925781 C 632 518.207031 633.320312 517.453125 634.621094 516.671875 C 635.917969 515.886719 637.199219 515.070312 638.460938 514.222656 C 639.71875 513.378906 640.957031 512.5 642.175781 511.59375 C 643.394531 510.683594 644.585938 509.75 645.757812 508.78125 C 646.929688 507.816406 648.078125 506.824219 649.199219 505.800781 C 650.320312 504.78125 651.417969 503.730469 652.488281 502.65625 C 653.5625 501.578125 654.605469 500.476562 655.625 499.351562 C 656.640625 498.226562 657.628906 497.074219 658.589844 495.898438 C 659.550781 494.722656 660.484375 493.527344 661.386719 492.304688 C 662.289062 491.085938 663.160156 489.84375 664 488.578125 C 664.84375 487.316406 665.652344 486.03125 666.429688 484.730469 C 667.210938 483.425781 667.957031 482.105469 668.667969 480.765625 C 669.382812 479.425781 670.0625 478.070312 670.710938 476.699219 C 671.359375 475.324219 671.972656 473.9375 672.550781 472.535156 C 673.132812 471.132812 673.675781 469.714844 674.1875 468.285156 C 674.695312 466.855469 675.171875 465.414062 675.609375 463.964844 C 676.050781 462.511719 676.453125 461.046875 676.824219 459.574219 C 677.191406 458.101562 677.523438 456.621094 677.816406 455.132812 C 678.113281 453.644531 678.371094 452.148438 678.59375 450.648438 C 678.816406 449.148438 679 447.640625 679.148438 446.132812 C 679.296875 444.621094 679.410156 443.109375 679.484375 441.59375 C 679.558594 440.074219 679.59375 438.558594 679.59375 437.042969 L 679.59375 385.609375 L 727.367188 385.609375 L 886.210938 486.074219 C 888.3125 487.371094 890.601562 488.027344 893.070312 488.042969 C 895.285156 488.039062 897.371094 487.527344 899.332031 486.5 C 900.335938 485.9375 901.25 485.25 902.070312 484.445312 C 902.890625 483.636719 903.59375 482.734375 904.171875 481.742188 C 904.753906 480.746094 905.191406 479.691406 905.492188 478.582031 C 905.792969 477.46875 905.941406 476.335938 905.9375 475.1875 L 905.9375 384.582031 C 908.691406 384.195312 911.417969 383.6875 914.125 383.058594 C 916.832031 382.429688 919.507812 381.679688 922.148438 380.808594 C 924.789062 379.941406 927.382812 378.957031 929.933594 377.855469 C 932.488281 376.753906 934.984375 375.542969 937.429688 374.21875 C 939.871094 372.894531 942.25 371.464844 944.566406 369.925781 C 946.882812 368.390625 949.125 366.753906 951.292969 365.015625 C 953.460938 363.277344 955.546875 361.445312 957.554688 359.523438 C 959.558594 357.597656 961.472656 355.589844 963.296875 353.496094 C 965.125 351.398438 966.851562 349.226562 968.484375 346.976562 C 970.113281 344.730469 971.640625 342.410156 973.0625 340.023438 C 974.488281 337.640625 975.800781 335.195312 977.003906 332.691406 C 978.210938 330.1875 979.300781 327.636719 980.277344 325.035156 C 981.253906 322.433594 982.109375 319.792969 982.851562 317.117188 C 983.589844 314.4375 984.210938 311.734375 984.707031 309 C 985.207031 306.269531 985.582031 303.519531 985.832031 300.75 C 986.085938 297.984375 986.210938 295.210938 986.214844 292.433594 L 986.214844 151.171875 C 986.214844 149.652344 986.171875 148.132812 986.097656 146.613281 C 986.019531 145.09375 985.90625 143.578125 985.753906 142.066406 C 985.601562 140.554688 985.414062 139.042969 985.1875 137.539062 C 984.960938 136.039062 984.699219 134.539062 984.402344 133.050781 C 984.101562 131.558594 983.769531 130.074219 983.398438 128.601562 C 983.027344 127.125 982.617188 125.664062 982.175781 124.207031 C 981.730469 122.753906 981.253906 121.308594 980.738281 119.878906 C 980.226562 118.449219 979.679688 117.03125 979.09375 115.625 C 978.511719 114.222656 977.894531 112.832031 977.242188 111.457031 C 976.59375 110.085938 975.90625 108.726562 975.191406 107.386719 C 974.472656 106.046875 973.722656 104.722656 972.941406 103.417969 C 972.15625 102.117188 971.34375 100.832031 970.5 99.566406 C 969.652344 98.304688 968.777344 97.0625 967.871094 95.839844 C 966.964844 94.617188 966.027344 93.421875 965.0625 92.246094 C 964.097656 91.070312 963.105469 89.917969 962.085938 88.789062 C 961.0625 87.664062 960.015625 86.5625 958.941406 85.488281 C 957.863281 84.410156 956.765625 83.363281 955.636719 82.339844 C 954.511719 81.320312 953.359375 80.324219 952.183594 79.359375 C 951.007812 78.394531 949.8125 77.457031 948.589844 76.550781 C 947.367188 75.644531 946.125 74.769531 944.863281 73.921875 C 943.597656 73.078125 942.3125 72.261719 941.011719 71.480469 C 939.707031 70.695312 938.382812 69.945312 937.042969 69.226562 C 935.703125 68.507812 934.34375 67.824219 932.972656 67.171875 C 931.597656 66.519531 930.207031 65.902344 928.800781 65.316406 C 927.398438 64.730469 925.980469 64.183594 924.546875 63.667969 C 923.117188 63.152344 921.671875 62.675781 920.21875 62.230469 C 918.761719 61.785156 917.296875 61.378906 915.824219 61.003906 C 914.347656 60.632812 912.867188 60.296875 911.375 59.996094 C 909.882812 59.695312 908.386719 59.433594 906.878906 59.207031 C 905.375 58.980469 903.867188 58.789062 902.355469 58.636719 C 900.839844 58.484375 899.324219 58.371094 897.804688 58.289062 C 896.285156 58.210938 894.765625 58.171875 893.242188 58.167969 Z M 653.863281 437.042969 C 653.863281 438.140625 653.835938 439.242188 653.78125 440.34375 C 653.722656 441.441406 653.640625 442.539062 653.53125 443.632812 C 653.421875 444.730469 653.289062 445.820312 653.125 446.910156 C 652.960938 448 652.773438 449.082031 652.558594 450.164062 C 652.339844 451.242188 652.097656 452.316406 651.828125 453.382812 C 651.5625 454.453125 651.265625 455.511719 650.945312 456.566406 C 650.625 457.617188 650.28125 458.664062 649.90625 459.699219 C 649.535156 460.734375 649.140625 461.761719 648.714844 462.777344 C 648.292969 463.796875 647.847656 464.800781 647.375 465.796875 C 646.90625 466.792969 646.410156 467.773438 645.890625 468.746094 C 645.371094 469.714844 644.828125 470.671875 644.261719 471.617188 C 643.691406 472.558594 643.105469 473.488281 642.492188 474.40625 C 641.878906 475.320312 641.246094 476.21875 640.589844 477.105469 C 639.933594 477.988281 639.253906 478.855469 638.554688 479.707031 C 637.855469 480.558594 637.136719 481.390625 636.398438 482.207031 C 635.65625 483.023438 634.898438 483.820312 634.121094 484.597656 C 633.339844 485.375 632.542969 486.132812 631.726562 486.875 C 630.910156 487.613281 630.078125 488.332031 629.226562 489.03125 C 628.375 489.730469 627.507812 490.40625 626.621094 491.0625 C 625.738281 491.71875 624.835938 492.351562 623.921875 492.964844 C 623.007812 493.574219 622.074219 494.164062 621.132812 494.730469 C 620.1875 495.296875 619.230469 495.839844 618.257812 496.359375 C 617.285156 496.878906 616.304688 497.375 615.308594 497.847656 C 614.3125 498.316406 613.304688 498.765625 612.289062 499.1875 C 611.269531 499.609375 610.246094 500.003906 609.207031 500.375 C 608.171875 500.746094 607.125 501.09375 606.070312 501.414062 C 605.015625 501.734375 603.957031 502.027344 602.886719 502.296875 C 601.820312 502.566406 600.746094 502.808594 599.664062 503.023438 C 598.585938 503.238281 597.5 503.429688 596.410156 503.589844 C 595.320312 503.753906 594.230469 503.890625 593.132812 504 C 592.039062 504.109375 590.9375 504.191406 589.839844 504.246094 C 588.738281 504.300781 587.636719 504.328125 586.535156 504.332031 L 499.824219 504.332031 C 497.300781 504.3125 494.984375 504.996094 492.878906 506.386719 L 350.589844 596.476562 L 350.589844 516.84375 C 350.589844 516 350.507812 515.164062 350.339844 514.335938 C 350.175781 513.507812 349.933594 512.703125 349.609375 511.925781 C 349.285156 511.144531 348.890625 510.402344 348.421875 509.703125 C 347.949219 509 347.417969 508.351562 346.820312 507.753906 C 346.222656 507.15625 345.574219 506.625 344.871094 506.15625 C 344.167969 505.6875 343.425781 505.289062 342.648438 504.964844 C 341.867188 504.644531 341.0625 504.398438 340.234375 504.234375 C 339.40625 504.070312 338.566406 503.988281 337.722656 503.988281 C 336.621094 503.988281 335.519531 503.957031 334.417969 503.902344 C 333.320312 503.847656 332.21875 503.765625 331.125 503.65625 C 330.027344 503.546875 328.933594 503.410156 327.84375 503.25 C 326.753906 503.085938 325.667969 502.898438 324.589844 502.679688 C 323.507812 502.464844 322.433594 502.222656 321.363281 501.953125 C 320.296875 501.6875 319.234375 501.390625 318.179688 501.070312 C 317.125 500.75 316.078125 500.40625 315.042969 500.035156 C 314.003906 499.664062 312.976562 499.265625 311.957031 498.84375 C 310.941406 498.421875 309.933594 497.976562 308.9375 497.503906 C 307.941406 497.035156 306.957031 496.539062 305.984375 496.019531 C 305.011719 495.5 304.054688 494.957031 303.109375 494.390625 C 302.164062 493.824219 301.234375 493.238281 300.316406 492.625 C 299.402344 492.011719 298.5 491.378906 297.613281 490.722656 C 296.730469 490.066406 295.859375 489.390625 295.007812 488.691406 C 294.15625 487.992188 293.320312 487.273438 292.503906 486.535156 C 291.6875 485.796875 290.890625 485.039062 290.109375 484.257812 C 289.332031 483.480469 288.570312 482.683594 287.828125 481.867188 C 287.089844 481.054688 286.367188 480.21875 285.667969 479.371094 C 284.96875 478.519531 284.289062 477.652344 283.632812 476.765625 C 282.976562 475.882812 282.339844 474.984375 281.726562 474.070312 C 281.113281 473.152344 280.523438 472.222656 279.957031 471.28125 C 279.386719 470.335938 278.84375 469.378906 278.324219 468.410156 C 277.800781 467.4375 277.304688 466.453125 276.832031 465.460938 C 276.359375 464.464844 275.910156 463.460938 275.488281 462.441406 C 275.066406 461.425781 274.667969 460.398438 274.292969 459.363281 C 273.921875 458.328125 273.574219 457.28125 273.25 456.226562 C 272.929688 455.175781 272.632812 454.113281 272.363281 453.046875 C 272.09375 451.976562 271.851562 450.90625 271.632812 449.824219 C 271.417969 448.746094 271.226562 447.660156 271.0625 446.570312 C 270.898438 445.484375 270.761719 444.390625 270.648438 443.292969 C 270.539062 442.199219 270.457031 441.101562 270.398438 440 C 270.34375 438.902344 270.3125 437.800781 270.308594 436.699219 L 270.308594 295.777344 C 270.3125 294.675781 270.34375 293.574219 270.398438 292.476562 C 270.457031 291.375 270.539062 290.277344 270.648438 289.183594 C 270.761719 288.085938 270.898438 286.996094 271.0625 285.90625 C 271.226562 284.816406 271.417969 283.730469 271.632812 282.652344 C 271.851562 281.570312 272.09375 280.5 272.363281 279.429688 C 272.632812 278.363281 272.929688 277.300781 273.25 276.25 C 273.574219 275.195312 273.921875 274.152344 274.292969 273.113281 C 274.667969 272.078125 275.066406 271.050781 275.488281 270.035156 C 275.910156 269.015625 276.359375 268.011719 276.832031 267.015625 C 277.304688 266.023438 277.800781 265.039062 278.324219 264.070312 C 278.84375 263.097656 279.386719 262.140625 279.957031 261.195312 C 280.523438 260.253906 281.113281 259.324219 281.726562 258.40625 C 282.339844 257.492188 282.976562 256.59375 283.632812 255.710938 C 284.289062 254.824219 284.96875 253.957031 285.667969 253.105469 C 286.367188 252.257812 287.089844 251.421875 287.828125 250.609375 C 288.570312 249.792969 289.332031 248.996094 290.109375 248.21875 C 290.890625 247.4375 291.6875 246.679688 292.503906 245.941406 C 293.320312 245.203125 294.15625 244.484375 295.007812 243.785156 C 295.859375 243.085938 296.730469 242.410156 297.613281 241.753906 C 298.5 241.097656 299.402344 240.464844 300.316406 239.851562 C 301.234375 239.242188 302.164062 238.652344 303.109375 238.085938 C 304.054688 237.519531 305.011719 236.976562 305.984375 236.457031 C 306.957031 235.9375 307.941406 235.441406 308.9375 234.972656 C 309.933594 234.5 310.941406 234.054688 311.957031 233.632812 C 312.976562 233.210938 314.003906 232.8125 315.042969 232.441406 C 316.078125 232.070312 317.125 231.726562 318.179688 231.40625 C 319.234375 231.085938 320.296875 230.789062 321.363281 230.523438 C 322.433594 230.253906 323.507812 230.011719 324.589844 229.796875 C 325.667969 229.578125 326.753906 229.390625 327.84375 229.226562 C 328.933594 229.066406 330.027344 228.929688 331.125 228.820312 C 332.21875 228.710938 333.320312 228.628906 334.417969 228.574219 C 335.519531 228.519531 336.621094 228.492188 337.722656 228.488281 L 586.449219 228.488281 C 587.550781 228.492188 588.652344 228.519531 589.753906 228.574219 C 590.851562 228.628906 591.953125 228.710938 593.046875 228.820312 C 594.144531 228.929688 595.234375 229.066406 596.324219 229.226562 C 597.414062 229.390625 598.5 229.582031 599.578125 229.796875 C 600.660156 230.011719 601.734375 230.253906 602.800781 230.523438 C 603.871094 230.789062 604.933594 231.085938 605.984375 231.40625 C 607.039062 231.726562 608.085938 232.070312 609.121094 232.445312 C 610.160156 232.816406 611.183594 233.210938 612.203125 233.632812 C 613.21875 234.054688 614.226562 234.503906 615.222656 234.972656 C 616.21875 235.445312 617.199219 235.941406 618.171875 236.460938 C 619.144531 236.980469 620.101562 237.523438 621.046875 238.089844 C 621.988281 238.65625 622.921875 239.242188 623.835938 239.855469 C 624.75 240.46875 625.652344 241.101562 626.535156 241.757812 C 627.421875 242.414062 628.289062 243.089844 629.140625 243.789062 C 629.992188 244.488281 630.824219 245.207031 631.640625 245.945312 C 632.457031 246.683594 633.253906 247.445312 634.035156 248.222656 C 634.8125 249 635.570312 249.796875 636.3125 250.613281 C 637.050781 251.429688 637.769531 252.261719 638.46875 253.113281 C 639.167969 253.964844 639.847656 254.832031 640.503906 255.714844 C 641.160156 256.601562 641.792969 257.5 642.40625 258.414062 C 643.019531 259.328125 643.605469 260.257812 644.175781 261.203125 C 644.742188 262.148438 645.285156 263.105469 645.804688 264.074219 C 646.324219 265.046875 646.820312 266.027344 647.289062 267.023438 C 647.761719 268.019531 648.207031 269.023438 648.628906 270.039062 C 649.054688 271.058594 649.449219 272.085938 649.820312 273.121094 C 650.195312 274.15625 650.539062 275.203125 650.859375 276.253906 C 651.179688 277.308594 651.476562 278.367188 651.742188 279.4375 C 652.011719 280.503906 652.253906 281.578125 652.472656 282.65625 C 652.6875 283.734375 652.875 284.820312 653.039062 285.910156 C 653.203125 286.996094 653.335938 288.089844 653.445312 289.183594 C 653.554688 290.28125 653.636719 291.378906 653.695312 292.476562 C 653.75 293.578125 653.777344 294.675781 653.777344 295.777344 Z M 960.65625 292.433594 C 960.652344 293.535156 960.625 294.636719 960.566406 295.738281 C 960.511719 296.835938 960.425781 297.933594 960.316406 299.03125 C 960.207031 300.125 960.070312 301.21875 959.90625 302.308594 C 959.742188 303.398438 959.550781 304.480469 959.332031 305.5625 C 959.117188 306.640625 958.871094 307.714844 958.601562 308.78125 C 958.332031 309.851562 958.035156 310.910156 957.714844 311.964844 C 957.394531 313.015625 957.046875 314.0625 956.671875 315.097656 C 956.300781 316.136719 955.902344 317.160156 955.476562 318.179688 C 955.054688 319.195312 954.605469 320.203125 954.132812 321.195312 C 953.660156 322.191406 953.164062 323.171875 952.644531 324.144531 C 952.125 325.113281 951.578125 326.074219 951.011719 327.015625 C 950.445312 327.960938 949.851562 328.890625 949.238281 329.804688 C 948.625 330.71875 947.992188 331.621094 947.332031 332.503906 C 946.675781 333.386719 945.996094 334.253906 945.296875 335.105469 C 944.597656 335.957031 943.878906 336.789062 943.136719 337.605469 C 942.398438 338.421875 941.636719 339.21875 940.855469 339.996094 C 940.078125 340.773438 939.277344 341.53125 938.460938 342.273438 C 937.644531 343.011719 936.808594 343.730469 935.957031 344.429688 C 935.105469 345.125 934.238281 345.804688 933.351562 346.460938 C 932.464844 347.113281 931.566406 347.75 930.648438 348.359375 C 929.734375 348.972656 928.800781 349.5625 927.855469 350.128906 C 926.910156 350.695312 925.953125 351.238281 924.980469 351.753906 C 924.007812 352.273438 923.027344 352.769531 922.03125 353.242188 C 921.035156 353.710938 920.027344 354.160156 919.007812 354.582031 C 917.992188 355.003906 916.960938 355.398438 915.925781 355.769531 C 914.886719 356.140625 913.84375 356.488281 912.789062 356.808594 C 911.734375 357.128906 910.671875 357.421875 909.601562 357.691406 C 908.535156 357.960938 907.460938 358.203125 906.378906 358.417969 C 905.296875 358.632812 904.210938 358.820312 903.121094 358.984375 C 902.03125 359.148438 900.941406 359.28125 899.84375 359.390625 C 898.746094 359.5 897.648438 359.582031 896.546875 359.640625 C 895.445312 359.695312 894.34375 359.722656 893.242188 359.722656 C 892.398438 359.722656 891.5625 359.804688 890.734375 359.972656 C 889.90625 360.136719 889.101562 360.378906 888.320312 360.703125 C 887.539062 361.027344 886.796875 361.421875 886.097656 361.890625 C 885.394531 362.359375 884.742188 362.894531 884.144531 363.488281 C 883.550781 364.085938 883.015625 364.734375 882.546875 365.4375 C 882.078125 366.140625 881.679688 366.882812 881.359375 367.660156 C 881.035156 368.441406 880.789062 369.246094 880.625 370.074219 C 880.460938 370.902344 880.378906 371.738281 880.378906 372.582031 L 880.378906 451.871094 L 738.003906 361.78125 C 735.894531 360.390625 733.582031 359.703125 731.054688 359.722656 L 679.59375 359.722656 L 679.59375 295.777344 C 679.59375 294.257812 679.554688 292.734375 679.480469 291.214844 C 679.402344 289.695312 679.289062 288.179688 679.140625 286.664062 C 678.988281 285.148438 678.800781 283.640625 678.578125 282.136719 C 678.351562 280.628906 678.089844 279.132812 677.792969 277.640625 C 677.496094 276.148438 677.160156 274.664062 676.789062 273.1875 C 676.417969 271.710938 676.011719 270.246094 675.570312 268.789062 C 675.125 267.332031 674.648438 265.890625 674.132812 264.457031 C 673.621094 263.023438 673.070312 261.605469 672.488281 260.199219 C 671.90625 258.792969 671.289062 257.402344 670.636719 256.027344 C 669.984375 254.652344 669.300781 253.292969 668.582031 251.953125 C 667.863281 250.609375 667.113281 249.289062 666.328125 247.984375 C 665.546875 246.679688 664.730469 245.394531 663.886719 244.128906 C 663.039062 242.863281 662.164062 241.617188 661.253906 240.398438 C 660.347656 239.175781 659.410156 237.976562 658.445312 236.800781 C 657.480469 235.625 656.484375 234.472656 655.460938 233.34375 C 654.441406 232.214844 653.390625 231.113281 652.3125 230.039062 C 651.238281 228.964844 650.136719 227.914062 649.007812 226.890625 C 647.878906 225.871094 646.726562 224.875 645.550781 223.910156 C 644.371094 222.945312 643.171875 222.007812 641.949219 221.101562 C 640.726562 220.195312 639.484375 219.320312 638.21875 218.472656 C 636.949219 217.628906 635.664062 216.8125 634.359375 216.03125 C 633.054688 215.25 631.730469 214.5 630.386719 213.78125 C 629.042969 213.0625 627.683594 212.378906 626.308594 211.726562 C 624.933594 211.074219 623.542969 210.460938 622.136719 209.875 C 620.730469 209.292969 619.308594 208.746094 617.875 208.230469 C 616.441406 207.71875 614.996094 207.238281 613.539062 206.796875 C 612.082031 206.355469 610.617188 205.949219 609.140625 205.578125 C 607.664062 205.207031 606.179688 204.871094 604.683594 204.574219 C 603.191406 204.277344 601.691406 204.015625 600.1875 203.792969 C 598.679688 203.566406 597.171875 203.378906 595.65625 203.230469 C 594.140625 203.078125 592.621094 202.964844 591.101562 202.890625 C 589.582031 202.8125 588.058594 202.773438 586.535156 202.773438 L 577.015625 202.773438 L 577.015625 151.34375 C 577.019531 150.242188 577.046875 149.140625 577.101562 148.042969 C 577.15625 146.941406 577.238281 145.84375 577.347656 144.75 C 577.457031 143.65625 577.59375 142.5625 577.757812 141.472656 C 577.917969 140.382812 578.109375 139.300781 578.324219 138.222656 C 578.539062 137.140625 578.78125 136.066406 579.050781 135 C 579.320312 133.933594 579.613281 132.871094 579.933594 131.820312 C 580.253906 130.765625 580.601562 129.722656 580.972656 128.683594 C 581.34375 127.648438 581.742188 126.621094 582.164062 125.605469 C 582.585938 124.589844 583.035156 123.582031 583.503906 122.589844 C 583.976562 121.59375 584.472656 120.609375 584.992188 119.640625 C 585.511719 118.667969 586.054688 117.710938 586.621094 116.769531 C 587.1875 115.824219 587.777344 114.894531 588.390625 113.980469 C 589 113.0625 589.636719 112.164062 590.292969 111.28125 C 590.949219 110.394531 591.625 109.527344 592.324219 108.679688 C 593.023438 107.828125 593.742188 106.992188 594.484375 106.179688 C 595.222656 105.363281 595.984375 104.566406 596.761719 103.789062 C 597.539062 103.007812 598.335938 102.25 599.152344 101.511719 C 599.96875 100.769531 600.804688 100.050781 601.65625 99.355469 C 602.507812 98.65625 603.375 97.976562 604.257812 97.320312 C 605.144531 96.667969 606.042969 96.03125 606.960938 95.421875 C 607.875 94.808594 608.804688 94.21875 609.75 93.652344 C 610.695312 93.085938 611.652344 92.542969 612.625 92.023438 C 613.59375 91.503906 614.578125 91.007812 615.574219 90.539062 C 616.570312 90.066406 617.574219 89.621094 618.59375 89.199219 C 619.609375 88.777344 620.636719 88.378906 621.671875 88.007812 C 622.710938 87.636719 623.753906 87.289062 624.808594 86.96875 C 625.863281 86.648438 626.925781 86.355469 627.992188 86.085938 C 629.0625 85.820312 630.136719 85.578125 631.214844 85.359375 C 632.296875 85.144531 633.378906 84.957031 634.46875 84.792969 C 635.558594 84.628906 636.652344 84.496094 637.746094 84.386719 C 638.84375 84.277344 639.941406 84.195312 641.042969 84.140625 C 642.140625 84.082031 643.242188 84.054688 644.34375 84.054688 L 893.070312 84.054688 C 894.171875 84.054688 895.273438 84.082031 896.375 84.140625 C 897.476562 84.195312 898.574219 84.277344 899.671875 84.386719 C 900.769531 84.496094 901.859375 84.628906 902.949219 84.792969 C 904.042969 84.957031 905.125 85.144531 906.207031 85.359375 C 907.289062 85.574219 908.363281 85.816406 909.429688 86.085938 C 910.5 86.355469 911.5625 86.648438 912.617188 86.96875 C 913.671875 87.289062 914.714844 87.636719 915.753906 88.007812 C 916.792969 88.378906 917.820312 88.773438 918.835938 89.195312 C 919.855469 89.617188 920.863281 90.066406 921.859375 90.535156 C 922.855469 91.007812 923.839844 91.503906 924.808594 92.023438 C 925.78125 92.539062 926.742188 93.082031 927.683594 93.648438 C 928.628906 94.214844 929.5625 94.804688 930.476562 95.417969 C 931.394531 96.027344 932.296875 96.664062 933.179688 97.316406 C 934.066406 97.972656 934.933594 98.652344 935.785156 99.347656 C 936.640625 100.046875 937.472656 100.765625 938.289062 101.503906 C 939.105469 102.246094 939.90625 103.003906 940.683594 103.78125 C 941.464844 104.558594 942.226562 105.355469 942.964844 106.171875 C 943.707031 106.988281 944.425781 107.820312 945.125 108.671875 C 945.828125 109.523438 946.503906 110.390625 947.164062 111.273438 C 947.820312 112.15625 948.457031 113.058594 949.066406 113.972656 C 949.679688 114.886719 950.273438 115.816406 950.839844 116.761719 C 951.40625 117.707031 951.953125 118.664062 952.472656 119.632812 C 952.992188 120.605469 953.488281 121.585938 953.960938 122.582031 C 954.433594 123.578125 954.882812 124.582031 955.304688 125.597656 C 955.730469 126.617188 956.128906 127.640625 956.5 128.679688 C 956.875 129.714844 957.222656 130.761719 957.542969 131.8125 C 957.863281 132.867188 958.160156 133.925781 958.429688 134.996094 C 958.699219 136.0625 958.945312 137.136719 959.160156 138.214844 C 959.378906 139.296875 959.570312 140.378906 959.734375 141.46875 C 959.898438 142.558594 960.035156 143.652344 960.144531 144.746094 C 960.253906 145.84375 960.339844 146.941406 960.394531 148.039062 C 960.453125 149.140625 960.484375 150.242188 960.484375 151.34375 Z M 960.65625 292.433594 " fill-opacity="1" fill-rule="nonzero"/></g><path fill="#000000" d="M 473.578125 281.035156 C 473.042969 279.96875 472.375 279 471.566406 278.121094 C 470.761719 277.242188 469.851562 276.492188 468.835938 275.867188 C 467.824219 275.242188 466.742188 274.765625 465.59375 274.441406 C 464.449219 274.117188 463.277344 273.953125 462.085938 273.953125 C 460.894531 273.953125 459.726562 274.117188 458.578125 274.441406 C 457.433594 274.765625 456.351562 275.242188 455.335938 275.867188 C 454.320312 276.492188 453.410156 277.242188 452.605469 278.121094 C 451.800781 279 451.128906 279.96875 450.59375 281.035156 L 371.257812 437.214844 C 370.824219 437.96875 370.472656 438.761719 370.203125 439.585938 C 369.929688 440.414062 369.742188 441.261719 369.644531 442.125 C 369.542969 442.992188 369.53125 443.855469 369.605469 444.722656 C 369.683594 445.589844 369.847656 446.441406 370.09375 447.277344 C 370.34375 448.109375 370.675781 448.910156 371.085938 449.679688 C 371.496094 450.445312 371.984375 451.164062 372.539062 451.832031 C 373.097656 452.503906 373.71875 453.109375 374.398438 453.652344 C 375.078125 454.195312 375.808594 454.664062 376.585938 455.058594 C 377.359375 455.453125 378.167969 455.765625 379.007812 456 C 379.847656 456.230469 380.703125 456.375 381.574219 456.429688 C 382.441406 456.488281 383.308594 456.457031 384.171875 456.339844 C 385.035156 456.222656 385.875 456.019531 386.699219 455.730469 C 387.519531 455.441406 388.304688 455.070312 389.050781 454.621094 C 389.796875 454.171875 390.492188 453.65625 391.132812 453.066406 C 391.773438 452.476562 392.347656 451.828125 392.859375 451.121094 C 393.367188 450.414062 393.800781 449.664062 394.160156 448.871094 L 421.519531 395.039062 L 502.65625 395.039062 L 529.671875 448.871094 C 530.03125 449.664062 530.460938 450.414062 530.972656 451.121094 C 531.480469 451.828125 532.058594 452.476562 532.699219 453.066406 C 533.339844 453.65625 534.035156 454.171875 534.78125 454.621094 C 535.527344 455.070312 536.3125 455.441406 537.132812 455.730469 C 537.953125 456.019531 538.796875 456.222656 539.660156 456.339844 C 540.523438 456.457031 541.390625 456.488281 542.257812 456.433594 C 543.128906 456.375 543.984375 456.230469 544.824219 456 C 545.664062 455.765625 546.472656 455.453125 547.246094 455.058594 C 548.023438 454.664062 548.753906 454.195312 549.433594 453.652344 C 550.113281 453.109375 550.734375 452.503906 551.292969 451.832031 C 551.847656 451.164062 552.332031 450.445312 552.746094 449.679688 C 553.15625 448.910156 553.488281 448.109375 553.738281 447.277344 C 553.984375 446.441406 554.148438 445.589844 554.222656 444.722656 C 554.300781 443.855469 554.289062 442.992188 554.1875 442.125 C 554.089844 441.261719 553.902344 440.414062 553.628906 439.585938 C 553.359375 438.761719 553.003906 437.96875 552.574219 437.214844 Z M 434.554688 369.324219 L 462.085938 315.234375 L 489.53125 369.324219 Z M 434.554688 369.324219 " fill-opacity="1" fill-rule="nonzero"/><path fill="#000000" d="M 844.011719 282.234375 L 793.839844 248.460938 C 804.253906 231.996094 812.832031 214.625 819.570312 196.34375 L 836.722656 196.34375 C 837.566406 196.34375 838.402344 196.261719 839.230469 196.097656 C 840.058594 195.933594 840.863281 195.6875 841.644531 195.367188 C 842.425781 195.042969 843.167969 194.648438 843.871094 194.175781 C 844.570312 193.707031 845.222656 193.175781 845.820312 192.578125 C 846.417969 191.980469 846.949219 191.332031 847.417969 190.628906 C 847.886719 189.929688 848.285156 189.1875 848.609375 188.40625 C 848.929688 187.628906 849.175781 186.824219 849.339844 185.996094 C 849.503906 185.167969 849.585938 184.332031 849.585938 183.488281 C 849.585938 182.644531 849.503906 181.804688 849.339844 180.976562 C 849.175781 180.152344 848.929688 179.347656 848.609375 178.566406 C 848.285156 177.785156 847.886719 177.046875 847.417969 176.34375 C 846.949219 175.640625 846.417969 174.992188 845.820312 174.394531 C 845.222656 173.796875 844.570312 173.265625 843.871094 172.796875 C 843.167969 172.328125 842.425781 171.929688 841.644531 171.609375 C 840.863281 171.285156 840.058594 171.039062 839.230469 170.875 C 838.402344 170.710938 837.566406 170.628906 836.722656 170.628906 L 784.746094 170.628906 L 784.746094 143.886719 C 784.746094 143.039062 784.664062 142.203125 784.5 141.375 C 784.335938 140.546875 784.089844 139.746094 783.765625 138.964844 C 783.445312 138.183594 783.046875 137.445312 782.578125 136.742188 C 782.109375 136.039062 781.574219 135.390625 780.976562 134.792969 C 780.382812 134.195312 779.730469 133.664062 779.027344 133.195312 C 778.328125 132.726562 777.585938 132.328125 776.804688 132.007812 C 776.023438 131.683594 775.21875 131.4375 774.390625 131.273438 C 773.5625 131.109375 772.726562 131.027344 771.882812 131.027344 C 771.035156 131.027344 770.199219 131.109375 769.371094 131.273438 C 768.542969 131.4375 767.738281 131.683594 766.957031 132.007812 C 766.175781 132.328125 765.4375 132.726562 764.734375 133.195312 C 764.03125 133.664062 763.382812 134.195312 762.785156 134.792969 C 762.1875 135.390625 761.652344 136.039062 761.183594 136.742188 C 760.714844 137.445312 760.320312 138.183594 759.996094 138.964844 C 759.671875 139.746094 759.429688 140.546875 759.261719 141.375 C 759.097656 142.203125 759.015625 143.039062 759.015625 143.886719 L 759.015625 170.628906 L 701.207031 170.628906 C 700.363281 170.628906 699.527344 170.710938 698.699219 170.875 C 697.871094 171.039062 697.066406 171.285156 696.285156 171.609375 C 695.503906 171.929688 694.761719 172.328125 694.0625 172.796875 C 693.359375 173.265625 692.707031 173.796875 692.113281 174.394531 C 691.515625 174.992188 690.980469 175.640625 690.511719 176.34375 C 690.042969 177.046875 689.644531 177.785156 689.324219 178.566406 C 689 179.347656 688.753906 180.152344 688.589844 180.976562 C 688.425781 181.804688 688.34375 182.644531 688.34375 183.488281 C 688.34375 184.332031 688.425781 185.167969 688.589844 185.996094 C 688.753906 186.824219 689 187.628906 689.324219 188.40625 C 689.644531 189.1875 690.042969 189.929688 690.511719 190.628906 C 690.980469 191.332031 691.515625 191.980469 692.113281 192.578125 C 692.707031 193.175781 693.359375 193.707031 694.0625 194.175781 C 694.761719 194.648438 695.503906 195.042969 696.285156 195.367188 C 697.066406 195.6875 697.871094 195.933594 698.699219 196.097656 C 699.527344 196.261719 700.363281 196.34375 701.207031 196.34375 L 792.207031 196.34375 C 786.714844 209.453125 780.140625 222 772.480469 233.976562 L 740.148438 212.203125 C 739.433594 211.730469 738.675781 211.328125 737.882812 211.003906 C 737.089844 210.679688 736.269531 210.433594 735.429688 210.269531 C 734.585938 210.105469 733.738281 210.023438 732.878906 210.027344 C 732.019531 210.03125 731.171875 210.117188 730.328125 210.289062 C 729.488281 210.460938 728.671875 210.710938 727.882812 211.042969 C 727.089844 211.375 726.339844 211.78125 725.628906 212.261719 C 724.914062 212.738281 724.257812 213.285156 723.652344 213.894531 C 723.050781 214.503906 722.511719 215.164062 722.039062 215.878906 C 721.5625 216.59375 721.164062 217.351562 720.839844 218.144531 C 720.515625 218.9375 720.273438 219.757812 720.109375 220.597656 C 719.945312 221.441406 719.867188 222.289062 719.871094 223.148438 C 719.875 224.003906 719.964844 224.855469 720.136719 225.695312 C 720.308594 226.535156 720.558594 227.351562 720.890625 228.140625 C 721.226562 228.929688 721.632812 229.679688 722.113281 230.390625 C 722.59375 231.101562 723.136719 231.757812 723.75 232.363281 C 724.359375 232.964844 725.023438 233.503906 725.738281 233.976562 L 757.644531 255.40625 C 747.640625 268.042969 736.578125 279.671875 724.453125 290.292969 C 723.820312 290.855469 723.25 291.472656 722.738281 292.148438 C 722.226562 292.824219 721.789062 293.542969 721.417969 294.304688 C 721.050781 295.070312 720.761719 295.859375 720.546875 296.679688 C 720.335938 297.496094 720.203125 298.328125 720.152344 299.175781 C 720.105469 300.019531 720.140625 300.859375 720.253906 301.699219 C 720.371094 302.539062 720.570312 303.355469 720.847656 304.15625 C 721.125 304.957031 721.476562 305.722656 721.90625 306.449219 C 722.335938 307.179688 722.832031 307.863281 723.394531 308.496094 C 723.957031 309.128906 724.574219 309.699219 725.25 310.210938 C 725.925781 310.722656 726.644531 311.160156 727.40625 311.53125 C 728.167969 311.898438 728.957031 312.191406 729.777344 312.40625 C 730.597656 312.621094 731.429688 312.753906 732.273438 312.800781 C 733.121094 312.851562 733.960938 312.820312 734.800781 312.703125 C 735.640625 312.589844 736.460938 312.394531 737.261719 312.117188 C 738.0625 311.839844 738.828125 311.488281 739.558594 311.0625 C 740.289062 310.632812 740.972656 310.140625 741.605469 309.578125 C 755.398438 297.496094 767.949219 284.238281 779.257812 269.804688 L 829.859375 304.09375 C 832.011719 305.539062 834.386719 306.253906 836.980469 306.234375 C 837.664062 306.234375 838.339844 306.179688 839.015625 306.066406 C 839.6875 305.957031 840.347656 305.796875 840.996094 305.582031 C 841.644531 305.367188 842.269531 305.101562 842.875 304.789062 C 843.480469 304.472656 844.058594 304.113281 844.609375 303.707031 C 845.15625 303.300781 845.667969 302.851562 846.144531 302.363281 C 846.621094 301.878906 847.058594 301.355469 847.453125 300.796875 C 847.847656 300.242188 848.191406 299.65625 848.492188 299.042969 C 848.792969 298.429688 849.046875 297.796875 849.246094 297.148438 C 849.445312 296.496094 849.59375 295.832031 849.6875 295.15625 C 849.78125 294.480469 849.820312 293.800781 849.808594 293.117188 C 849.792969 292.4375 849.726562 291.757812 849.605469 291.089844 C 849.484375 290.417969 849.308594 289.757812 849.082031 289.117188 C 848.855469 288.472656 848.582031 287.851562 848.253906 287.25 C 847.929688 286.652344 847.558594 286.082031 847.144531 285.539062 C 846.726562 285 846.273438 284.496094 845.773438 284.027344 C 845.277344 283.558594 844.75 283.132812 844.183594 282.75 Z M 844.011719 282.234375 " fill-opacity="1" fill-rule="nonzero"/></svg>