<svg xmlns="http://www.w3.org/2000/svg" xmlns:xlink="http://www.w3.org/1999/xlink" width="1640" zoomAndPan="magnify" viewBox="0 0 1230 693.000001" height="924" preserveAspectRatio="xMidYMid meet" version="1.2"><defs><clipPath id="57cd8beb55"><path d="M 303.597656 34.601562 L 926.699219 34.601562 L 926.699219 657.699219 L 303.597656 657.699219 Z M 303.597656 34.601562 "/></clipPath></defs><g id="51a0ac5fd9"><g clip-rule="nonzero" clip-path="url(#57cd8beb55)"><path style=" stroke:none;fill-rule:evenodd;fill:#000000;fill-opacity:1;" d="M 359.6875 234.597656 L 343.261719 234.597656 C 329.027344 234.597656 317.402344 222.957031 317.402344 208.71875 C 317.402344 205.101562 318.15625 201.648438 319.515625 198.511719 C 310.195312 194.59375 303.597656 185.351562 303.597656 174.640625 L 303.597656 174.625 C 303.621094 161.683594 313.285156 150.871094 325.761719 149.046875 C 324.832031 146.386719 324.324219 143.527344 324.324219 140.558594 L 324.324219 140.542969 C 324.347656 128.515625 332.695312 118.332031 343.875 115.488281 C 342.828125 112.679688 342.253906 109.648438 342.253906 106.492188 L 342.253906 106.480469 C 342.277344 92.246094 353.925781 80.632812 368.128906 80.632812 L 368.136719 80.632812 L 508.25 80.714844 C 533.40625 80.714844 556.246094 90.640625 573.0625 106.785156 L 584.5 106.785156 C 585.722656 103.390625 587.683594 100.277344 590.285156 97.675781 C 594.925781 93.03125 601.222656 90.425781 607.789062 90.425781 L 726.789062 90.425781 L 726.789062 74.402344 C 726.789062 60.164062 738.433594 48.539062 752.667969 48.539062 C 756.289062 48.539062 759.738281 49.292969 762.875 50.65625 C 766.796875 41.335938 776.039062 34.738281 786.75 34.738281 L 786.765625 34.738281 C 799.707031 34.761719 810.519531 44.421875 812.339844 56.902344 C 815.003906 55.972656 817.859375 55.464844 820.832031 55.464844 L 820.847656 55.464844 C 832.875 55.488281 843.058594 63.835938 845.902344 75.015625 C 848.707031 73.964844 851.738281 73.390625 854.894531 73.390625 L 854.910156 73.390625 C 869.144531 73.417969 880.757812 85.0625 880.757812 99.269531 L 880.757812 99.273438 L 880.675781 239.386719 C 880.675781 264.546875 870.75 287.386719 854.601562 304.199219 L 854.601562 315.273438 C 857.996094 316.496094 861.113281 318.457031 863.714844 321.058594 C 868.355469 325.699219 870.964844 331.996094 870.964844 338.5625 L 870.964844 457.550781 L 887.039062 457.550781 C 901.273438 457.550781 912.898438 469.191406 912.898438 483.425781 C 912.898438 487.042969 912.144531 490.496094 910.785156 493.632812 C 920.105469 497.550781 926.699219 506.796875 926.699219 517.507812 L 926.699219 517.523438 C 926.675781 530.464844 917.015625 541.277344 904.539062 543.097656 C 905.46875 545.761719 905.972656 548.617188 905.972656 551.589844 L 905.972656 551.605469 C 905.953125 563.628906 897.605469 573.816406 886.425781 576.660156 C 887.472656 579.464844 888.046875 582.496094 888.046875 585.652344 L 888.046875 585.667969 C 888.019531 599.902344 876.375 611.515625 862.167969 611.515625 L 862.164062 611.515625 L 722.050781 611.429688 C 696.890625 611.429688 674.054688 601.507812 657.238281 585.359375 L 646.167969 585.359375 C 644.941406 588.753906 642.980469 591.871094 640.382812 594.472656 C 635.738281 599.113281 629.441406 601.722656 622.875 601.722656 L 503.863281 601.722656 L 503.863281 617.773438 C 503.863281 632.011719 492.21875 643.632812 477.984375 643.632812 C 474.367188 643.632812 470.914062 642.878906 467.777344 641.519531 C 463.855469 650.839844 454.617188 657.4375 443.902344 657.4375 L 443.886719 657.4375 C 430.945312 657.414062 420.132812 647.75 418.3125 635.273438 C 415.648438 636.203125 412.792969 636.710938 409.820312 636.710938 L 409.804688 636.710938 C 397.78125 636.6875 387.59375 628.339844 384.75 617.160156 C 381.945312 618.207031 378.914062 618.78125 375.757812 618.78125 L 375.742188 618.78125 C 361.511719 618.757812 349.898438 607.109375 349.898438 592.90625 L 349.898438 592.898438 L 349.980469 452.785156 C 349.980469 427.628906 359.902344 404.789062 376.050781 387.972656 L 376.050781 376.902344 C 372.65625 375.679688 369.539062 373.71875 366.941406 371.117188 C 362.296875 366.476562 359.6875 360.179688 359.6875 353.613281 Z M 726.789062 108.082031 L 607.789062 108.082031 C 605.90625 108.082031 604.101562 108.832031 602.769531 110.160156 C 601.441406 111.492188 600.691406 113.296875 600.691406 115.179688 L 600.691406 233.980469 C 600.691406 235.863281 601.441406 237.667969 602.769531 239 C 604.101562 240.332031 605.90625 241.078125 607.789062 241.078125 L 693.554688 241.078125 C 693.542969 240.53125 693.539062 239.980469 693.539062 239.429688 L 692.859375 160.21875 C 692.859375 160.191406 692.859375 160.167969 692.859375 160.140625 C 692.859375 145.90625 704.5 134.28125 718.738281 134.28125 L 718.753906 134.28125 C 721.558594 134.285156 724.257812 134.742188 726.789062 135.582031 Z M 695.542969 258.738281 L 607.789062 258.738281 C 601.222656 258.738281 594.925781 256.128906 590.285156 251.484375 C 587.683594 248.886719 585.722656 245.769531 584.5 242.375 C 579 242.375 572.425781 242.375 572.425781 242.375 C 560.242188 253.859375 544.976562 262.113281 528 265.761719 L 528 353.613281 C 528 360.179688 525.394531 366.476562 520.75 371.117188 C 518.148438 373.71875 515.035156 375.679688 511.640625 376.902344 C 511.640625 382.269531 511.640625 388.609375 511.640625 388.609375 C 523.210938 400.882812 531.5 416.285156 535.105469 433.410156 L 622.875 433.410156 C 629.441406 433.410156 635.738281 436.015625 640.382812 440.660156 C 642.980469 443.257812 644.941406 446.378906 646.167969 449.769531 C 651.535156 449.769531 657.871094 449.769531 657.871094 449.773438 C 670.140625 438.207031 685.535156 429.917969 702.652344 426.308594 L 702.652344 338.5625 C 702.652344 331.996094 705.257812 325.699219 709.902344 321.058594 C 712.503906 318.457031 715.621094 316.496094 719.011719 315.273438 C 719.011719 309.90625 719.011719 303.566406 719.015625 303.566406 C 707.4375 291.285156 699.144531 275.875 695.542969 258.738281 Z M 510.34375 267.828125 C 509.660156 267.839844 508.976562 267.851562 508.289062 267.851562 L 429.078125 268.527344 C 429.054688 268.527344 429.027344 268.527344 429.003906 268.527344 C 414.765625 268.527344 403.140625 256.886719 403.140625 242.652344 L 403.140625 242.632812 C 403.148438 239.832031 403.601562 237.128906 404.441406 234.597656 L 377.347656 234.597656 L 377.347656 353.613281 C 377.347656 355.496094 378.09375 357.300781 379.425781 358.632812 C 380.757812 359.960938 382.5625 360.710938 384.445312 360.710938 L 503.246094 360.710938 C 505.128906 360.710938 506.933594 359.960938 508.265625 358.632812 C 509.59375 357.300781 510.34375 355.496094 510.34375 353.613281 Z M 853.304688 457.550781 L 853.304688 338.5625 C 853.304688 336.679688 852.558594 334.875 851.226562 333.542969 C 849.894531 332.210938 848.089844 331.464844 846.207031 331.464844 L 727.410156 331.464844 C 725.527344 331.464844 723.71875 332.210938 722.390625 333.542969 C 721.058594 334.875 720.308594 336.679688 720.308594 338.5625 L 720.308594 424.3125 C 720.875 424.300781 721.441406 424.296875 722.007812 424.296875 L 801.222656 423.617188 C 801.246094 423.617188 801.269531 423.617188 801.296875 423.617188 C 815.535156 423.617188 827.15625 435.257812 827.15625 449.496094 L 827.15625 449.511719 C 827.152344 452.316406 826.695312 455.015625 825.859375 457.550781 Z M 503.863281 584.0625 L 622.875 584.0625 C 624.757812 584.0625 626.5625 583.316406 627.894531 581.984375 C 629.226562 580.652344 629.972656 578.847656 629.972656 576.964844 L 629.972656 458.167969 C 629.972656 456.28125 629.226562 454.476562 627.894531 453.148438 C 626.5625 451.816406 624.757812 451.070312 622.875 451.070312 L 537.097656 451.070312 C 537.109375 451.625 537.113281 452.183594 537.113281 452.746094 L 537.792969 531.957031 C 537.792969 531.980469 537.792969 532.007812 537.792969 532.03125 C 537.792969 546.269531 526.152344 557.894531 511.914062 557.894531 L 511.898438 557.894531 C 509.09375 557.890625 506.394531 557.433594 503.863281 556.59375 Z M 583.035156 124.445312 L 569.40625 124.445312 C 567.003906 124.445312 564.703125 123.464844 563.035156 121.730469 C 549.21875 107.332031 529.78125 98.375 508.25 98.375 L 508.242188 98.375 L 368.128906 98.292969 C 363.617188 98.292969 359.925781 101.980469 359.910156 106.5 C 359.914062 111.007812 363.597656 114.710938 368.113281 114.710938 C 368.429688 114.710938 448.660156 114.695312 448.660156 114.695312 C 453.535156 114.691406 457.496094 118.644531 457.5 123.519531 C 457.503906 128.390625 453.550781 132.351562 448.675781 132.355469 C 448.675781 132.355469 350.195312 132.355469 350.175781 132.355469 C 345.675781 132.371094 341.996094 136.066406 341.984375 140.566406 C 341.988281 145.082031 345.671875 148.777344 350.1875 148.777344 L 448.667969 148.777344 C 453.542969 148.777344 457.5 152.734375 457.5 157.605469 C 457.5 162.480469 453.542969 166.4375 448.667969 166.4375 C 448.667969 166.4375 329.480469 166.4375 329.464844 166.4375 C 324.953125 166.453125 321.269531 170.144531 321.257812 174.644531 C 321.261719 179.160156 324.953125 182.859375 329.460938 182.859375 L 448.675781 182.957031 C 453.550781 182.960938 457.503906 186.921875 457.5 191.796875 C 457.492188 196.667969 453.535156 200.621094 448.660156 200.617188 L 343.277344 200.515625 C 338.761719 200.519531 335.058594 204.210938 335.058594 208.71875 C 335.058594 213.238281 338.742188 216.9375 343.261719 216.9375 L 483.128906 216.9375 C 488.003906 216.9375 491.960938 220.894531 491.960938 225.769531 C 491.960938 230.640625 488.003906 234.597656 483.128906 234.597656 L 427.464844 234.597656 C 423.683594 235.328125 420.8125 238.675781 420.800781 242.660156 C 420.804688 247.164062 424.472656 250.855469 428.976562 250.871094 L 508.171875 250.191406 C 508.199219 250.191406 508.222656 250.191406 508.25 250.191406 C 529.507812 250.191406 548.726562 241.453125 562.511719 227.371094 C 564.171875 225.675781 566.445312 224.714844 568.820312 224.714844 L 583.035156 224.714844 Z M 836.945312 313.804688 L 836.945312 300.546875 C 836.945312 298.140625 837.925781 295.839844 839.660156 294.175781 C 854.054688 280.359375 863.015625 260.921875 863.015625 239.386719 L 863.015625 239.382812 L 863.097656 99.269531 C 863.097656 94.757812 859.40625 91.0625 854.886719 91.050781 C 850.378906 91.054688 846.675781 94.738281 846.675781 99.253906 C 846.675781 99.570312 846.691406 179.800781 846.691406 179.800781 C 846.695312 184.675781 842.742188 188.632812 837.871094 188.636719 C 832.996094 188.640625 829.039062 184.6875 829.035156 179.816406 C 829.035156 179.816406 829.035156 81.335938 829.035156 81.3125 C 829.015625 76.816406 825.324219 73.136719 820.824219 73.125 C 816.308594 73.128906 812.613281 76.8125 812.613281 81.328125 L 812.613281 179.808594 C 812.613281 184.679688 808.65625 188.636719 803.78125 188.636719 C 798.910156 188.636719 794.953125 184.679688 794.953125 179.808594 C 794.953125 179.808594 794.953125 60.621094 794.953125 60.601562 C 794.9375 56.09375 791.246094 52.410156 786.742188 52.398438 C 782.226562 52.402344 778.53125 56.09375 778.53125 60.601562 L 778.429688 179.816406 C 778.425781 184.691406 774.46875 188.640625 769.59375 188.636719 C 764.71875 188.632812 760.769531 184.671875 760.773438 179.800781 L 760.871094 74.417969 C 760.871094 69.898438 757.179688 66.199219 752.667969 66.199219 C 748.148438 66.199219 744.449219 69.882812 744.449219 74.402344 L 744.449219 214.269531 C 744.449219 219.144531 740.492188 223.097656 735.621094 223.097656 C 730.746094 223.097656 726.789062 219.144531 726.789062 214.269531 L 726.789062 158.601562 C 726.058594 154.824219 722.714844 151.949219 718.730469 151.941406 C 714.222656 151.945312 710.535156 155.613281 710.519531 160.113281 L 711.195312 239.3125 C 711.199219 239.339844 711.199219 239.363281 711.199219 239.386719 C 711.199219 260.648438 719.9375 279.867188 734.019531 293.648438 C 735.714844 295.308594 736.671875 297.585938 736.671875 299.960938 L 736.671875 313.804688 Z M 647.632812 467.429688 L 647.632812 567.703125 L 660.894531 567.703125 C 663.296875 567.703125 665.597656 568.683594 667.261719 570.417969 C 681.078125 584.8125 700.519531 593.773438 722.050781 593.773438 L 722.054688 593.773438 L 862.167969 593.855469 C 866.679688 593.855469 870.375 590.164062 870.386719 585.644531 C 870.382812 581.136719 866.699219 577.433594 862.183594 577.433594 C 861.871094 577.433594 781.636719 577.449219 781.636719 577.449219 C 776.765625 577.453125 772.804688 573.5 772.800781 568.628906 C 772.796875 563.753906 776.75 559.796875 781.621094 559.789062 C 781.621094 559.789062 880.105469 559.789062 880.125 559.789062 C 884.625 559.773438 888.300781 556.082031 888.316406 551.582031 C 888.308594 547.066406 884.628906 543.371094 880.113281 543.371094 L 781.628906 543.371094 C 776.757812 543.371094 772.800781 539.414062 772.800781 534.539062 C 772.800781 529.667969 776.757812 525.710938 781.628906 525.710938 C 781.628906 525.710938 900.820312 525.710938 900.835938 525.710938 C 905.34375 525.695312 909.027344 522.003906 909.042969 517.5 C 909.039062 512.984375 905.347656 509.289062 900.839844 509.289062 L 781.621094 509.1875 C 776.75 509.183594 772.796875 505.222656 772.800781 500.351562 C 772.804688 495.476562 776.765625 491.527344 781.640625 491.53125 L 887.019531 491.628906 C 891.539062 491.628906 895.238281 487.9375 895.238281 483.425781 C 895.238281 478.910156 891.554688 475.207031 887.039062 475.207031 L 747.167969 475.207031 C 742.296875 475.207031 738.339844 471.25 738.339844 466.378906 C 738.339844 461.503906 742.296875 457.550781 747.167969 457.550781 L 802.835938 457.550781 C 806.617188 456.816406 809.488281 453.472656 809.5 449.488281 C 809.496094 444.980469 805.828125 441.289062 801.324219 441.277344 L 722.125 441.957031 C 722.101562 441.957031 722.074219 441.957031 722.050781 441.957031 C 700.789062 441.957031 681.570312 450.695312 667.789062 464.777344 C 666.128906 466.472656 663.855469 467.429688 661.480469 467.429688 Z M 393.710938 378.367188 L 393.710938 391.628906 C 393.710938 394.035156 392.726562 396.335938 390.992188 398 C 376.597656 411.816406 367.636719 431.253906 367.636719 452.785156 L 367.636719 452.792969 L 367.554688 592.90625 C 367.554688 597.417969 371.246094 601.109375 375.765625 601.125 C 380.273438 601.121094 383.976562 597.4375 383.976562 592.921875 C 383.976562 592.617188 383.960938 512.375 383.960938 512.375 C 383.957031 507.5 387.910156 503.542969 392.78125 503.535156 C 397.65625 503.53125 401.617188 507.484375 401.621094 512.359375 C 401.621094 512.359375 401.621094 610.839844 401.621094 610.859375 C 401.636719 615.359375 405.328125 619.039062 409.832031 619.050781 C 414.34375 619.046875 418.042969 615.363281 418.042969 610.847656 L 418.042969 512.367188 C 418.042969 507.492188 421.996094 503.535156 426.871094 503.535156 C 431.742188 503.535156 435.699219 507.492188 435.699219 512.367188 C 435.699219 512.367188 435.699219 631.554688 435.699219 631.574219 C 435.71875 636.082031 439.40625 639.765625 443.910156 639.777344 C 448.425781 639.773438 452.121094 636.082031 452.121094 631.574219 L 452.222656 512.359375 C 452.226562 507.484375 456.1875 503.53125 461.058594 503.535156 C 465.933594 503.542969 469.886719 507.503906 469.878906 512.375 L 469.78125 617.757812 C 469.78125 622.273438 473.472656 625.976562 477.984375 625.976562 C 482.503906 625.976562 486.203125 622.292969 486.203125 617.773438 L 486.203125 477.90625 C 486.203125 473.03125 490.160156 469.074219 495.03125 469.074219 C 499.90625 469.074219 503.863281 473.03125 503.863281 477.90625 L 503.863281 533.570312 C 504.59375 537.351562 507.941406 540.222656 511.925781 540.234375 C 516.429688 540.230469 520.121094 536.5625 520.132812 532.058594 L 519.457031 452.863281 C 519.457031 452.835938 519.457031 452.8125 519.457031 452.785156 C 519.457031 431.527344 510.714844 412.308594 496.632812 398.527344 C 494.9375 396.863281 493.980469 394.589844 493.980469 392.214844 L 493.980469 378.367188 Z M 393.710938 378.367188 "/></g></g></svg>