<svg xmlns="http://www.w3.org/2000/svg" xmlns:xlink="http://www.w3.org/1999/xlink" width="1640" zoomAndPan="magnify" viewBox="0 0 1230 693.000001" height="924" preserveAspectRatio="xMidYMid meet" version="1.2"><defs><clipPath id="f900a05ace"><path d="M 277.464844 73.863281 L 952.238281 73.863281 L 952.238281 618.328125 L 277.464844 618.328125 Z M 277.464844 73.863281 "/></clipPath></defs><g id="b58d2a5274"><g clip-rule="nonzero" clip-path="url(#f900a05ace)"><path style=" stroke:none;fill-rule:nonzero;fill:#000000;fill-opacity:1;" d="M 818.113281 453.628906 C 818.113281 459.480469 813.375 464.222656 807.53125 464.222656 L 776.722656 464.222656 C 770.878906 464.222656 766.140625 459.480469 766.140625 453.628906 C 766.140625 447.78125 770.878906 443.039062 776.722656 443.039062 L 807.53125 443.039062 C 813.375 443.039062 818.113281 447.78125 818.113281 453.628906 Z M 807.53125 381.15625 L 776.722656 381.15625 C 770.878906 381.15625 766.140625 385.898438 766.140625 391.75 C 766.140625 397.601562 770.878906 402.34375 776.722656 402.34375 L 807.53125 402.34375 C 813.375 402.34375 818.113281 397.601562 818.113281 391.75 C 818.113281 385.898438 813.375 381.15625 807.53125 381.15625 Z M 879.421875 443.039062 L 848.613281 443.039062 C 842.765625 443.039062 838.027344 447.78125 838.027344 453.628906 C 838.027344 459.480469 842.765625 464.222656 848.613281 464.222656 L 879.421875 464.222656 C 885.265625 464.222656 890.003906 459.480469 890.003906 453.628906 C 890.003906 447.78125 885.265625 443.039062 879.421875 443.039062 Z M 879.421875 381.15625 L 848.613281 381.15625 C 842.765625 381.15625 838.027344 385.898438 838.027344 391.75 C 838.027344 397.601562 842.765625 402.34375 848.613281 402.34375 L 879.421875 402.34375 C 885.265625 402.34375 890.003906 397.601562 890.003906 391.75 C 890.003906 385.898438 885.265625 381.15625 879.421875 381.15625 Z M 807.53125 319.277344 L 776.722656 319.277344 C 770.878906 319.277344 766.140625 324.019531 766.140625 329.871094 C 766.140625 335.71875 770.878906 340.464844 776.722656 340.464844 L 807.53125 340.464844 C 813.375 340.464844 818.113281 335.71875 818.113281 329.871094 C 818.113281 324.019531 813.375 319.277344 807.53125 319.277344 Z M 807.53125 257.398438 L 776.722656 257.398438 C 770.878906 257.398438 766.140625 262.140625 766.140625 267.992188 C 766.140625 273.839844 770.878906 278.585938 776.722656 278.585938 L 807.53125 278.585938 C 813.375 278.585938 818.113281 273.839844 818.113281 267.992188 C 818.113281 262.140625 813.375 257.398438 807.53125 257.398438 Z M 879.421875 319.277344 L 848.613281 319.277344 C 842.765625 319.277344 838.027344 324.019531 838.027344 329.871094 C 838.027344 335.71875 842.765625 340.464844 848.613281 340.464844 L 879.421875 340.464844 C 885.265625 340.464844 890.003906 335.71875 890.003906 329.871094 C 890.003906 324.019531 885.265625 319.277344 879.421875 319.277344 Z M 381.089844 443.039062 L 350.285156 443.039062 C 344.4375 443.039062 339.699219 447.78125 339.699219 453.628906 C 339.699219 459.480469 344.4375 464.222656 350.285156 464.222656 L 381.089844 464.222656 C 386.933594 464.222656 391.675781 459.480469 391.675781 453.628906 C 391.675781 447.78125 386.933594 443.039062 381.089844 443.039062 Z M 422.171875 278.585938 L 452.980469 278.585938 C 458.824219 278.585938 463.5625 273.839844 463.5625 267.992188 C 463.5625 262.140625 458.824219 257.398438 452.980469 257.398438 L 422.171875 257.398438 C 416.328125 257.398438 411.589844 262.140625 411.589844 267.992188 C 411.589844 273.839844 416.328125 278.585938 422.171875 278.585938 Z M 848.613281 278.585938 L 879.421875 278.585938 C 885.265625 278.585938 890.003906 273.839844 890.003906 267.992188 C 890.003906 262.140625 885.265625 257.398438 879.421875 257.398438 L 848.613281 257.398438 C 842.765625 257.398438 838.027344 262.140625 838.027344 267.992188 C 838.027344 273.839844 842.765625 278.585938 848.613281 278.585938 Z M 422.171875 340.464844 L 452.980469 340.464844 C 458.824219 340.464844 463.5625 335.71875 463.5625 329.871094 C 463.5625 324.019531 458.824219 319.277344 452.980469 319.277344 L 422.171875 319.277344 C 416.328125 319.277344 411.589844 324.019531 411.589844 329.871094 C 411.589844 335.71875 416.328125 340.464844 422.171875 340.464844 Z M 422.171875 402.34375 L 452.980469 402.34375 C 458.824219 402.34375 463.5625 397.601562 463.5625 391.75 C 463.5625 385.898438 458.824219 381.15625 452.980469 381.15625 L 422.171875 381.15625 C 416.328125 381.15625 411.589844 385.898438 411.589844 391.75 C 411.589844 397.601562 416.328125 402.34375 422.171875 402.34375 Z M 452.980469 464.222656 C 458.824219 464.222656 463.5625 459.480469 463.5625 453.628906 C 463.5625 447.78125 458.824219 443.039062 452.980469 443.039062 L 422.171875 443.039062 C 416.328125 443.039062 411.589844 447.78125 411.589844 453.628906 C 411.589844 459.480469 416.328125 464.222656 422.171875 464.222656 Z M 381.089844 381.15625 L 350.285156 381.15625 C 344.4375 381.15625 339.699219 385.898438 339.699219 391.75 C 339.699219 397.601562 344.4375 402.34375 350.285156 402.34375 L 381.089844 402.34375 C 386.933594 402.34375 391.675781 397.601562 391.675781 391.75 C 391.675781 385.898438 386.933594 381.15625 381.089844 381.15625 Z M 381.089844 319.277344 L 350.285156 319.277344 C 344.4375 319.277344 339.699219 324.019531 339.699219 329.871094 C 339.699219 335.71875 344.4375 340.464844 350.285156 340.464844 L 381.089844 340.464844 C 386.933594 340.464844 391.675781 335.71875 391.675781 329.871094 C 391.675781 324.019531 386.933594 319.277344 381.089844 319.277344 Z M 381.089844 257.398438 L 350.285156 257.398438 C 344.4375 257.398438 339.699219 262.140625 339.699219 267.992188 C 339.699219 273.839844 344.4375 278.585938 350.285156 278.585938 L 381.089844 278.585938 C 386.933594 278.585938 391.675781 273.839844 391.675781 267.992188 C 391.675781 262.140625 386.933594 257.398438 381.089844 257.398438 Z M 556.503906 145.335938 L 587.308594 145.335938 C 593.15625 145.335938 597.894531 140.59375 597.894531 134.746094 C 597.894531 128.894531 593.15625 124.152344 587.308594 124.152344 L 556.503906 124.152344 C 550.65625 124.152344 545.917969 128.894531 545.917969 134.746094 C 545.917969 140.59375 550.65625 145.335938 556.503906 145.335938 Z M 642.390625 145.335938 L 673.199219 145.335938 C 679.042969 145.335938 683.78125 140.59375 683.78125 134.746094 C 683.78125 128.894531 679.042969 124.152344 673.199219 124.152344 L 642.390625 124.152344 C 636.546875 124.152344 631.808594 128.894531 631.808594 134.746094 C 631.808594 140.59375 636.546875 145.335938 642.390625 145.335938 Z M 556.503906 198.492188 L 587.308594 198.492188 C 593.15625 198.492188 597.894531 193.75 597.894531 187.898438 C 597.894531 182.050781 593.15625 177.304688 587.308594 177.304688 L 556.503906 177.304688 C 550.65625 177.304688 545.917969 182.050781 545.917969 187.898438 C 545.917969 193.75 550.65625 198.492188 556.503906 198.492188 Z M 642.390625 198.492188 L 673.199219 198.492188 C 679.042969 198.492188 683.78125 193.75 683.78125 187.898438 C 683.78125 182.050781 679.042969 177.304688 673.199219 177.304688 L 642.390625 177.304688 C 636.546875 177.304688 631.808594 182.050781 631.808594 187.898438 C 631.808594 193.75 636.546875 198.492188 642.390625 198.492188 Z M 556.503906 251.648438 L 587.308594 251.648438 C 593.15625 251.648438 597.894531 246.90625 597.894531 241.054688 C 597.894531 235.203125 593.15625 230.460938 587.308594 230.460938 L 556.503906 230.460938 C 550.65625 230.460938 545.917969 235.203125 545.917969 241.054688 C 545.917969 246.90625 550.65625 251.648438 556.503906 251.648438 Z M 642.390625 251.648438 L 673.199219 251.648438 C 679.042969 251.648438 683.78125 246.90625 683.78125 241.054688 C 683.78125 235.203125 679.042969 230.460938 673.199219 230.460938 L 642.390625 230.460938 C 636.546875 230.460938 631.808594 235.203125 631.808594 241.054688 C 631.808594 246.90625 636.546875 251.648438 642.390625 251.648438 Z M 556.503906 304.800781 L 587.308594 304.800781 C 593.15625 304.800781 597.894531 300.058594 597.894531 294.207031 C 597.894531 288.359375 593.15625 283.617188 587.308594 283.617188 L 556.503906 283.617188 C 550.65625 283.617188 545.917969 288.359375 545.917969 294.207031 C 545.917969 300.058594 550.65625 304.800781 556.503906 304.800781 Z M 642.390625 304.800781 L 673.199219 304.800781 C 679.042969 304.800781 683.78125 300.058594 683.78125 294.207031 C 683.78125 288.359375 679.042969 283.617188 673.199219 283.617188 L 642.390625 283.617188 C 636.546875 283.617188 631.808594 288.359375 631.808594 294.207031 C 631.808594 300.058594 636.546875 304.800781 642.390625 304.800781 Z M 952.222656 557.769531 L 952.222656 607.710938 C 952.222656 613.558594 947.484375 618.300781 941.640625 618.300781 L 288.0625 618.300781 C 282.21875 618.300781 277.480469 613.558594 277.480469 607.710938 L 277.480469 557.769531 C 277.480469 551.917969 282.21875 547.175781 288.0625 547.175781 L 300.449219 547.175781 L 300.449219 177.941406 C 300.449219 172.09375 305.1875 167.351562 311.03125 167.351562 L 481.308594 167.351562 L 481.308594 84.480469 C 481.308594 78.628906 486.046875 73.886719 491.894531 73.886719 L 737.808594 73.886719 C 743.652344 73.886719 748.390625 78.628906 748.390625 84.480469 L 748.390625 167.351562 L 918.671875 167.351562 C 924.515625 167.351562 929.253906 172.09375 929.253906 177.941406 L 929.253906 547.175781 L 941.640625 547.175781 C 947.484375 547.175781 952.222656 551.917969 952.222656 557.769531 Z M 908.089844 547.175781 L 908.089844 231.753906 L 748.394531 231.753906 L 748.394531 498.476562 L 784.304688 498.476562 C 790.148438 498.476562 794.886719 503.21875 794.886719 509.070312 L 794.886719 547.175781 Z M 455.984375 519.664062 L 455.984375 547.175781 L 773.71875 547.175781 L 773.71875 519.664062 Z M 647.597656 381.277344 C 647.597656 363.210938 632.90625 348.507812 614.851562 348.507812 C 596.796875 348.507812 582.105469 363.210938 582.105469 381.277344 C 582.105469 399.347656 596.796875 414.050781 614.851562 414.050781 C 632.910156 414.050781 647.597656 399.347656 647.597656 381.277344 Z M 614.851562 439.425781 C 580.464844 439.425781 551.257812 464.957031 546.089844 498.476562 L 683.609375 498.476562 C 678.445312 464.960938 649.238281 439.425781 614.851562 439.425781 Z M 748.394531 188.535156 L 748.394531 210.570312 L 908.089844 210.570312 L 908.089844 188.535156 Z M 502.476562 95.070312 L 502.476562 498.476562 L 524.722656 498.476562 C 528.722656 464.417969 551.699219 436.222656 582.390625 424.328125 C 569.367188 414.46875 560.9375 398.84375 560.9375 381.277344 C 560.9375 351.527344 585.121094 327.320312 614.851562 327.320312 C 644.582031 327.320312 668.765625 351.527344 668.765625 381.277344 C 668.765625 398.84375 660.332031 414.46875 647.3125 424.328125 C 678.003906 436.222656 700.980469 464.417969 704.976562 498.476562 L 727.226562 498.476562 L 727.226562 95.070312 Z M 321.617188 188.535156 L 321.617188 210.570312 L 481.308594 210.570312 L 481.308594 188.535156 Z M 321.617188 547.175781 L 434.816406 547.175781 L 434.816406 509.070312 C 434.816406 503.21875 439.554688 498.476562 445.402344 498.476562 L 481.3125 498.476562 L 481.3125 231.753906 L 321.617188 231.753906 Z M 931.054688 568.363281 L 298.648438 568.363281 L 298.648438 597.117188 L 931.054688 597.117188 Z M 931.054688 568.363281 "/></g></g></svg>