<svg xmlns="http://www.w3.org/2000/svg" xmlns:xlink="http://www.w3.org/1999/xlink" width="1640" zoomAndPan="magnify" viewBox="0 0 1230 693.000001" height="924" preserveAspectRatio="xMidYMid meet" version="1.2"><defs><clipPath id="e3669be530"><path d="M 309.300781 44.886719 L 912.929688 44.886719 L 912.929688 639.527344 L 309.300781 639.527344 Z M 309.300781 44.886719 "/></clipPath></defs><g id="226fc6a23f"><g clip-rule="nonzero" clip-path="url(#e3669be530)"><path style=" stroke:none;fill-rule:nonzero;fill:#000000;fill-opacity:1;" d="M 631.121094 163.65625 C 658.535156 169.617188 681.605469 187.429688 696.285156 211.199219 L 736.902344 211.199219 C 739.410156 211.199219 741.65625 212.265625 743.265625 213.964844 L 846.519531 305.273438 C 848.6875 306.894531 850.085938 309.464844 850.085938 312.335938 L 850.085938 357.085938 C 850.085938 361.941406 846.152344 365.875 841.300781 365.875 L 821.386719 365.875 L 821.386719 395.425781 C 821.386719 400.28125 817.453125 404.214844 812.597656 404.214844 L 807.625 404.214844 L 807.625 549.179688 L 905.804688 577.804688 C 909.851562 578.609375 912.863281 582.140625 912.863281 586.414062 L 912.863281 630.722656 C 912.863281 635.578125 908.933594 639.511719 904.078125 639.511719 L 318.050781 639.511719 C 313.195312 639.511719 309.261719 635.578125 309.261719 630.722656 L 309.261719 586.414062 C 309.261719 582.140625 312.3125 578.609375 316.324219 577.804688 L 414.5 549.179688 L 414.5 404.226562 L 409.527344 404.226562 C 404.675781 404.226562 400.742188 400.292969 400.742188 395.4375 L 400.742188 365.886719 L 380.828125 365.886719 C 375.972656 365.886719 372.039062 361.953125 372.039062 357.097656 L 372.039062 312.089844 C 372.078125 309.296875 373.480469 307.050781 375.609375 305.285156 L 479.445312 213.472656 C 481.109375 212.003906 483.160156 211.265625 485.261719 211.265625 L 485.261719 211.226562 L 525.855469 211.226562 C 540.574219 187.453125 563.605469 169.640625 591.019531 163.683594 L 591.019531 53.769531 C 591.019531 48.914062 594.953125 44.980469 599.808594 44.980469 L 622.371094 44.980469 C 627.1875 44.980469 631.132812 48.914062 631.132812 53.769531 L 631.132812 56.238281 L 719.925781 56.238281 C 727.503906 56.238281 732.0625 65.625 725.738281 71.621094 L 705.800781 92.042969 L 726.117188 112.285156 C 731.671875 117.800781 727.660156 127.265625 719.9375 127.265625 L 719.9375 127.304688 L 631.144531 127.304688 L 631.144531 163.65625 Z M 705.230469 228.792969 C 710.265625 241.265625 713.355469 254.953125 714.058594 269.347656 C 714.277344 274.242188 710.449219 278.371094 705.292969 278.476562 L 705.292969 278.515625 L 516.871094 278.515625 C 511.679688 278.515625 507.640625 274.242188 508.148438 268.582031 C 508.886719 254.484375 511.9375 241.058594 516.9375 228.804688 L 488.535156 228.804688 L 404.011719 303.546875 L 818.167969 303.546875 L 733.644531 228.804688 L 705.230469 228.804688 Z M 669.648438 205.136719 C 636.714844 170.394531 585.414062 170.394531 552.480469 205.136719 C 538.199219 220.222656 529.191406 240.058594 526.425781 260.921875 L 695.6875 260.921875 C 692.9375 240.058594 683.964844 220.222656 669.648438 205.136719 Z M 379.503906 577.636719 L 842.636719 577.636719 L 797.125 564.394531 C 796.605469 564.277344 796.125 564.132812 795.65625 563.953125 L 737.113281 546.878906 C 736.59375 546.777344 736.085938 546.621094 735.605469 546.4375 L 611.089844 510.152344 L 486.574219 546.4375 C 486.09375 546.621094 485.613281 546.777344 485.105469 546.878906 L 426.523438 563.953125 C 426.042969 564.132812 425.5625 564.289062 425.054688 564.394531 Z M 895.289062 595.226562 L 326.839844 595.226562 L 326.839844 621.945312 L 895.289062 621.945312 Z M 432.089844 544.078125 L 474.550781 531.679688 L 474.550781 404.238281 L 432.089844 404.238281 Z M 492.140625 526.5625 L 572.25 503.195312 L 572.25 404.238281 L 567.058594 404.238281 C 562.203125 404.238281 558.269531 400.304688 558.269531 395.449219 L 558.269531 365.902344 L 506.382812 365.902344 L 506.382812 395.449219 C 506.382812 400.304688 502.449219 404.238281 497.59375 404.238281 L 492.140625 404.238281 Z M 589.839844 498.078125 L 608.648438 492.601562 C 610.335938 492.121094 612.035156 492.160156 613.621094 492.640625 L 632.3125 498.089844 L 632.3125 404.253906 L 589.851562 404.253906 L 589.851562 498.078125 Z M 649.890625 503.195312 L 729.996094 526.5625 L 729.996094 404.238281 L 724.546875 404.238281 C 719.691406 404.238281 715.757812 400.304688 715.757812 395.449219 L 715.757812 365.902344 L 663.871094 365.902344 L 663.871094 395.449219 C 663.871094 400.304688 659.9375 404.238281 655.082031 404.238281 L 649.890625 404.238281 Z M 747.585938 531.679688 L 790.050781 544.078125 L 790.050781 404.226562 L 747.585938 404.226562 Z M 699.050781 73.828125 L 631.121094 73.828125 L 631.121094 109.714844 L 698.675781 109.714844 L 687.339844 98.417969 C 683.886719 95.03125 683.808594 89.472656 687.199219 86.019531 Z M 418.316406 365.886719 L 418.316406 386.648438 L 488.78125 386.648438 L 488.78125 365.886719 Z M 575.84375 365.886719 L 575.84375 386.648438 L 646.308594 386.648438 L 646.308594 365.886719 Z M 733.347656 365.886719 L 733.347656 386.648438 L 803.808594 386.648438 L 803.808594 365.886719 Z M 832.511719 321.136719 L 389.617188 321.136719 L 389.617188 348.296875 C 537.253906 348.296875 684.875 348.296875 832.511719 348.296875 Z M 613.570312 62.558594 L 608.597656 62.558594 L 608.597656 161.230469 L 613.570312 161.230469 Z M 613.570312 62.558594 "/></g></g></svg>