<svg xmlns="http://www.w3.org/2000/svg" xmlns:xlink="http://www.w3.org/1999/xlink" width="1640" zoomAndPan="magnify" viewBox="0 0 1230 693.000001" height="924" preserveAspectRatio="xMidYMid meet" version="1.2"><g id="52b2262f2e"><path style=" stroke:none;fill-rule:evenodd;fill:#000000;fill-opacity:1;" d="M 695.085938 389.675781 L 695.085938 351.71875 C 695.085938 318.414062 674.675781 289.78125 645.761719 277.632812 C 657.078125 268.535156 664.339844 254.605469 664.339844 238.992188 C 664.339844 211.664062 642.097656 189.421875 614.820312 189.421875 C 587.542969 189.421875 565.304688 211.664062 565.304688 238.992188 C 565.304688 254.605469 572.5625 268.535156 583.878906 277.632812 C 554.96875 289.78125 534.558594 318.414062 534.558594 351.71875 L 534.558594 389.675781 C 505.1875 366.085938 486.285156 329.84375 486.285156 289.269531 C 486.285156 218.347656 543.976562 160.640625 614.820312 160.640625 C 685.664062 160.640625 743.355469 218.347656 743.355469 289.269531 C 743.359375 329.84375 724.453125 366.085938 695.085938 389.675781 Z M 582.445312 238.992188 C 582.445312 256.867188 596.964844 271.40625 614.824219 271.40625 C 632.679688 271.40625 647.203125 256.867188 647.203125 238.992188 C 647.203125 221.117188 632.679688 206.566406 614.824219 206.566406 C 596.964844 206.566406 582.445312 221.117188 582.445312 238.992188 Z M 614.824219 323.820312 L 605.597656 370.191406 L 614.824219 378.566406 L 624.046875 370.191406 Z M 551.699219 401.292969 C 590.753906 423.4375 638.894531 423.4375 677.945312 401.292969 L 677.945312 351.722656 C 677.945312 320.519531 655.183594 294.539062 625.417969 289.464844 L 641.835938 371.609375 C 642.425781 374.570312 641.378906 377.609375 639.15625 379.632812 L 620.578125 396.492188 C 617.304688 399.460938 612.335938 399.460938 609.0625 396.492188 L 590.484375 379.632812 C 588.261719 377.609375 587.214844 374.558594 587.871094 371.609375 L 604.222656 289.464844 C 574.460938 294.539062 551.695312 320.519531 551.695312 351.722656 L 551.695312 401.292969 Z M 614.824219 143.5 C 534.496094 143.5 469.148438 208.886719 469.148438 289.269531 C 469.148438 369.652344 534.496094 435.039062 614.824219 435.039062 C 695.152344 435.039062 760.496094 369.652344 760.496094 289.269531 C 760.496094 208.886719 695.152344 143.5 614.824219 143.5 Z M 811.585938 306.6875 C 825.011719 298.941406 825.003906 279.605469 811.585938 271.851562 L 802.035156 266.339844 C 784.089844 256.011719 778.226562 233.035156 788.363281 215.445312 L 793.921875 205.902344 C 801.722656 192.433594 792.058594 175.738281 776.523438 175.738281 L 765.46875 175.738281 C 744.996094 175.738281 728.25 159.019531 728.25 138.480469 L 728.25 127.464844 C 728.25 111.859375 711.613281 102.246094 698.09375 110.046875 L 688.609375 115.554688 C 670.816406 125.828125 647.988281 119.703125 637.71875 101.917969 L 632.222656 92.375 C 624.46875 78.890625 605.179688 78.890625 597.421875 92.375 L 591.929688 101.917969 C 581.660156 119.703125 558.832031 125.832031 541.039062 115.554688 L 531.554688 110.046875 C 518.117188 102.257812 501.398438 111.800781 501.398438 127.464844 L 501.398438 138.480469 C 501.398438 159.023438 484.71875 175.742188 464.179688 175.742188 L 453.125 175.742188 C 437.621094 175.742188 427.921875 192.425781 435.722656 205.902344 L 441.285156 215.445312 C 451.488281 233.246094 445.40625 256.066406 427.613281 266.34375 L 418.0625 271.851562 C 404.640625 279.605469 404.636719 298.941406 418.0625 306.6875 L 427.613281 312.199219 C 445.40625 322.472656 451.488281 345.300781 441.285156 363.09375 L 435.722656 372.636719 C 427.925781 386.121094 437.621094 402.8125 453.125 402.8125 L 464.179688 402.8125 C 484.71875 402.8125 501.398438 419.523438 501.398438 440.058594 L 501.398438 451.089844 C 501.398438 466.785156 518.148438 476.265625 531.554688 468.507812 L 541.039062 463 C 558.667969 452.8125 581.585938 458.660156 591.929688 476.636719 L 597.421875 486.179688 C 605.179688 499.65625 624.464844 499.65625 632.222656 486.179688 L 637.71875 476.636719 C 647.988281 458.839844 670.816406 452.722656 688.609375 463 L 698.09375 468.507812 C 711.617188 476.296875 728.25 466.691406 728.25 451.089844 L 728.25 440.058594 C 728.25 419.523438 744.996094 402.8125 765.46875 402.8125 L 776.523438 402.8125 C 792.054688 402.8125 801.714844 386.109375 793.921875 372.636719 L 788.363281 363.09375 C 778.160156 345.308594 784.242188 322.472656 802.035156 312.199219 Z M 721.378906 550.207031 C 716.867188 548.972656 712.15625 551.691406 710.914062 556.261719 L 699.203125 600.152344 L 642.230469 501.414062 C 646.339844 496.757812 649.367188 490.746094 652.566406 485.207031 C 658.125 475.59375 670.421875 472.300781 680.039062 477.84375 L 689.523438 483.355469 C 699.597656 489.171875 710.914062 490.015625 721.378906 485.925781 L 765.269531 561.964844 Z M 530.507812 600.152344 L 518.734375 556.261719 C 517.488281 551.691406 512.847656 548.972656 508.265625 550.207031 L 464.375 561.964844 L 508.265625 485.9375 C 518.734375 490.019531 530.050781 489.171875 540.125 483.355469 L 549.609375 477.84375 C 559.222656 472.300781 571.523438 475.59375 577.082031 485.207031 C 580.277344 490.746094 583.308594 496.757812 587.417969 501.414062 Z M 820.152344 257.003906 L 810.601562 251.496094 C 800.941406 245.925781 797.726562 233.472656 803.210938 224.019531 L 808.773438 214.476562 C 823.109375 189.691406 805.359375 158.597656 776.523438 158.597656 L 765.46875 158.597656 C 754.414062 158.597656 745.386719 149.566406 745.386719 138.480469 L 745.386719 127.464844 C 745.386719 98.675781 714.40625 80.789062 689.523438 95.199219 L 680.039062 100.707031 C 670.425781 106.25 658.125 102.949219 652.566406 93.347656 L 647.070312 83.804688 C 632.675781 58.894531 596.96875 58.894531 582.574219 83.804688 L 577.082031 93.347656 C 571.519531 102.949219 559.222656 106.25 549.605469 100.707031 L 540.121094 95.199219 C 515.238281 80.789062 484.257812 98.675781 484.257812 127.464844 L 484.257812 138.480469 C 484.257812 149.566406 475.234375 158.597656 464.179688 158.597656 L 453.125 158.597656 C 424.40625 158.597656 406.554688 189.578125 420.941406 214.476562 L 426.433594 224.019531 C 431.921875 233.53125 428.691406 245.9375 419.042969 251.496094 L 409.492188 257.003906 C 384.664062 271.371094 384.664062 307.167969 409.492188 321.535156 L 419.042969 327.042969 C 428.660156 332.597656 431.929688 344.917969 426.433594 354.519531 L 420.941406 364.0625 C 406.558594 388.949219 424.414062 419.953125 453.125 419.953125 L 464.179688 419.953125 C 475.234375 419.953125 484.257812 428.972656 484.257812 440.058594 L 484.257812 451.085938 C 484.257812 460.847656 487.726562 469.625 494.007812 476.332031 L 439.257812 571.3125 C 435.417969 577.910156 441.53125 585.851562 448.875 583.875 L 504.410156 568.980469 L 519.324219 624.574219 C 521.257812 631.984375 531.214844 633.210938 534.957031 626.644531 L 601.679688 511.058594 C 609.996094 514.152344 619.660156 514.152344 627.972656 511.058594 L 694.695312 626.644531 C 698.472656 633.273438 708.421875 631.882812 710.394531 624.574219 L 725.242188 568.980469 L 780.777344 583.875 C 788.078125 585.84375 794.210938 577.882812 790.460938 571.3125 L 735.644531 476.332031 C 741.921875 469.613281 745.390625 460.847656 745.390625 451.085938 L 745.390625 440.058594 C 745.390625 428.972656 754.417969 419.953125 765.472656 419.953125 L 776.527344 419.953125 C 805.363281 419.953125 823.113281 388.847656 808.777344 364.0625 L 803.214844 354.519531 C 797.722656 344.917969 800.992188 332.597656 810.605469 327.042969 L 820.15625 321.535156 C 845.011719 307.148438 844.976562 271.414062 820.152344 257.003906 Z M 820.152344 257.003906 "/></g></svg>