<svg xmlns="http://www.w3.org/2000/svg" xmlns:xlink="http://www.w3.org/1999/xlink" width="1640" zoomAndPan="magnify" viewBox="0 0 1230 693.000001" height="924" preserveAspectRatio="xMidYMid meet" version="1.2"><defs><clipPath id="b91ef751e8"><path d="M 0.886719 0 L 1229.113281 0 L 1229.113281 692 L 0.886719 692 Z M 0.886719 0 "/></clipPath><clipPath id="9e9f950ba5"><path d="M 406.917969 74.15625 L 823.316406 74.15625 L 823.316406 617.875 L 406.917969 617.875 Z M 406.917969 74.15625 "/></clipPath></defs><g id="5c7b2616d5"><g clip-rule="nonzero" clip-path="url(#b91ef751e8)"><path style=" stroke:none;fill-rule:nonzero;fill:#ffffff;fill-opacity:1;" d="M 0.886719 0 L 1229.113281 0 L 1229.113281 692 L 0.886719 692 Z M 0.886719 0 "/><path style=" stroke:none;fill-rule:nonzero;fill:#ffffff;fill-opacity:1;" d="M 0.886719 0 L 1229.113281 0 L 1229.113281 692 L 0.886719 692 Z M 0.886719 0 "/></g><g clip-rule="nonzero" clip-path="url(#9e9f950ba5)"><path style=" stroke:none;fill-rule:nonzero;fill:#000000;fill-opacity:1;" d="M 795.839844 101.992188 C 795.839844 87.414062 781.722656 74.667969 765.632812 74.667969 L 436.933594 74.667969 C 435.945312 74.671875 434.957031 74.722656 433.972656 74.820312 C 432.988281 74.921875 432.011719 75.070312 431.042969 75.265625 C 430.074219 75.460938 429.113281 75.703125 428.167969 75.992188 C 427.222656 76.28125 426.292969 76.617188 425.378906 76.996094 C 424.464844 77.375 423.574219 77.800781 422.703125 78.265625 C 421.828125 78.734375 420.984375 79.242188 420.160156 79.792969 C 419.339844 80.34375 418.546875 80.933594 417.78125 81.5625 C 417.015625 82.191406 416.285156 82.855469 415.585938 83.554688 C 414.886719 84.253906 414.222656 84.988281 413.597656 85.75 C 412.96875 86.515625 412.382812 87.308594 411.832031 88.132812 C 411.28125 88.953125 410.773438 89.800781 410.308594 90.675781 C 409.839844 91.546875 409.417969 92.4375 409.039062 93.351562 C 408.660156 94.265625 408.328125 95.195312 408.039062 96.140625 C 407.75 97.089844 407.511719 98.046875 407.316406 99.015625 C 407.121094 99.984375 406.976562 100.960938 406.878906 101.945312 C 406.78125 102.929688 406.730469 103.917969 406.726562 104.90625 L 406.726562 559.941406 C 406.730469 560.871094 406.773438 561.796875 406.859375 562.722656 C 406.945312 563.644531 407.074219 564.5625 407.246094 565.476562 C 407.417969 566.386719 407.628906 567.289062 407.882812 568.183594 C 408.136719 569.078125 408.429688 569.957031 408.765625 570.820312 C 409.101562 571.6875 409.472656 572.535156 409.886719 573.367188 C 410.300781 574.199219 410.75 575.007812 411.238281 575.800781 C 411.722656 576.589844 412.246094 577.355469 412.804688 578.097656 C 413.363281 578.839844 413.953125 579.554688 414.578125 580.242188 C 415.199219 580.929688 415.855469 581.585938 416.539062 582.214844 C 417.222656 582.84375 417.933594 583.4375 418.671875 584 C 419.410156 584.5625 420.175781 585.089844 420.960938 585.582031 C 421.75 586.074219 422.558594 586.527344 423.386719 586.945312 C 424.214844 587.363281 425.0625 587.742188 425.925781 588.082031 C 426.789062 588.425781 427.667969 588.722656 428.558594 588.984375 C 429.449219 589.242188 430.351562 589.460938 431.265625 589.636719 C 432.175781 589.8125 433.09375 589.949219 434.019531 590.039062 C 434.109375 590.96875 434.242188 591.890625 434.417969 592.808594 C 434.589844 593.726562 434.808594 594.632812 435.070312 595.527344 C 435.328125 596.425781 435.628906 597.308594 435.96875 598.175781 C 436.3125 599.046875 436.691406 599.894531 437.113281 600.730469 C 437.53125 601.5625 437.988281 602.375 438.484375 603.167969 C 438.980469 603.957031 439.511719 604.726562 440.078125 605.464844 C 440.644531 606.207031 441.242188 606.921875 441.875 607.609375 C 442.507812 608.296875 443.171875 608.953125 443.863281 609.578125 C 444.558594 610.203125 445.277344 610.792969 446.027344 611.351562 C 446.773438 611.910156 447.546875 612.433594 448.34375 612.921875 C 449.140625 613.40625 449.957031 613.855469 450.796875 614.269531 C 451.632812 614.679688 452.488281 615.050781 453.363281 615.382812 C 454.234375 615.714844 455.121094 616.007812 456.019531 616.257812 C 456.921875 616.507812 457.828125 616.714844 458.75 616.882812 C 459.667969 617.046875 460.59375 617.171875 461.523438 617.25 C 462.453125 617.332031 463.382812 617.367188 464.320312 617.363281 L 793.015625 617.363281 C 810.234375 617.363281 823.222656 603.253906 823.222656 584.445312 L 823.222656 129.691406 C 823.035156 115.582031 810.660156 103.496094 795.839844 101.992188 Z M 416.136719 559.941406 L 416.136719 104.90625 C 416.136719 104.226562 416.171875 103.546875 416.238281 102.867188 C 416.304688 102.1875 416.40625 101.515625 416.539062 100.847656 C 416.671875 100.179688 416.835938 99.519531 417.035156 98.867188 C 417.230469 98.214844 417.460938 97.574219 417.71875 96.945312 C 417.980469 96.316406 418.273438 95.699219 418.59375 95.097656 C 418.914062 94.496094 419.261719 93.914062 419.640625 93.347656 C 420.019531 92.78125 420.425781 92.234375 420.855469 91.707031 C 421.289062 91.179688 421.746094 90.675781 422.226562 90.191406 C 422.707031 89.710938 423.210938 89.25 423.738281 88.820312 C 424.265625 88.386719 424.8125 87.980469 425.378906 87.601562 C 425.945312 87.222656 426.527344 86.871094 427.128906 86.546875 C 427.730469 86.226562 428.34375 85.933594 428.972656 85.671875 C 429.601562 85.410156 430.242188 85.179688 430.894531 84.980469 C 431.546875 84.78125 432.207031 84.617188 432.875 84.480469 C 433.542969 84.347656 434.21875 84.246094 434.894531 84.179688 C 435.574219 84.109375 436.253906 84.074219 436.933594 84.074219 L 765.441406 84.074219 C 766.078125 84.058594 766.710938 84.070312 767.34375 84.117188 C 767.976562 84.160156 768.605469 84.230469 769.234375 84.332031 C 769.859375 84.4375 770.480469 84.566406 771.09375 84.726562 C 771.707031 84.886719 772.3125 85.074219 772.910156 85.289062 C 773.507812 85.507812 774.089844 85.75 774.664062 86.019531 C 775.238281 86.289062 775.800781 86.585938 776.347656 86.910156 C 776.890625 87.230469 777.421875 87.578125 777.9375 87.949219 C 778.449219 88.324219 778.945312 88.71875 779.425781 89.136719 C 779.902344 89.554688 780.359375 89.992188 780.792969 90.453125 C 781.230469 90.914062 781.644531 91.390625 782.035156 91.890625 C 782.429688 92.390625 782.796875 92.90625 783.140625 93.4375 C 783.484375 93.972656 783.804688 94.519531 784.09375 95.082031 C 784.386719 95.644531 784.65625 96.21875 784.894531 96.808594 C 785.132812 97.394531 785.34375 97.992188 785.527344 98.597656 C 785.710938 99.207031 785.867188 99.820312 785.996094 100.441406 C 786.121094 101.0625 786.21875 101.6875 786.285156 102.320312 L 786.285156 557.355469 C 786.285156 570.945312 777.488281 580.871094 765.441406 580.871094 L 436.933594 580.871094 C 436.25 580.867188 435.570312 580.832031 434.890625 580.765625 C 434.210938 580.695312 433.535156 580.59375 432.863281 580.460938 C 432.195312 580.324219 431.53125 580.15625 430.878906 579.957031 C 430.222656 579.757812 429.582031 579.523438 428.949219 579.261719 C 428.320312 579 427.703125 578.703125 427.101562 578.382812 C 426.5 578.058594 425.914062 577.703125 425.347656 577.324219 C 424.78125 576.941406 424.234375 576.535156 423.707031 576.097656 C 423.179688 575.664062 422.675781 575.203125 422.195312 574.71875 C 421.710938 574.234375 421.253906 573.726562 420.824219 573.195312 C 420.390625 572.667969 419.988281 572.117188 419.609375 571.546875 C 419.230469 570.976562 418.882812 570.390625 418.5625 569.789062 C 418.242188 569.183594 417.953125 568.566406 417.695312 567.933594 C 417.433594 567.300781 417.207031 566.65625 417.011719 566.003906 C 416.816406 565.347656 416.652344 564.683594 416.523438 564.015625 C 416.390625 563.34375 416.292969 562.667969 416.230469 561.988281 C 416.164062 561.308594 416.136719 560.625 416.136719 559.941406 Z M 813.625 584.492188 C 813.625 598.082031 804.871094 608.003906 792.828125 608.003906 L 464.320312 608.003906 C 463.082031 608 461.855469 607.886719 460.640625 607.664062 C 459.425781 607.445312 458.238281 607.117188 457.082031 606.683594 C 455.925781 606.25 454.816406 605.714844 453.753906 605.085938 C 452.691406 604.453125 451.691406 603.734375 450.757812 602.925781 C 449.824219 602.113281 448.96875 601.230469 448.195312 600.269531 C 447.417969 599.308594 446.734375 598.285156 446.140625 597.199219 C 445.546875 596.117188 445.054688 594.988281 444.660156 593.820312 C 444.269531 592.648438 443.984375 591.449219 443.804688 590.226562 L 765.441406 590.226562 C 782.664062 590.226562 795.695312 576.121094 795.695312 557.308594 L 795.695312 111.539062 C 796.84375 111.65625 797.976562 111.875 799.085938 112.1875 C 800.199219 112.503906 801.273438 112.910156 802.316406 113.410156 C 803.355469 113.910156 804.347656 114.496094 805.285156 115.164062 C 806.226562 115.835938 807.101562 116.582031 807.914062 117.402344 C 808.726562 118.226562 809.460938 119.109375 810.117188 120.058594 C 810.777344 121.007812 811.351562 122.003906 811.835938 123.050781 C 812.324219 124.097656 812.714844 125.179688 813.015625 126.292969 C 813.316406 127.40625 813.519531 128.539062 813.625 129.691406 Z M 813.625 584.492188 "/></g><path style=" stroke:none;fill-rule:nonzero;fill:#000000;fill-opacity:1;" d="M 703.289062 532.574219 L 499.324219 532.574219 C 499.015625 532.574219 498.710938 532.601562 498.40625 532.664062 C 498.101562 532.722656 497.808594 532.8125 497.523438 532.929688 C 497.238281 533.050781 496.96875 533.195312 496.710938 533.367188 C 496.453125 533.535156 496.214844 533.730469 495.996094 533.949219 C 495.777344 534.167969 495.582031 534.40625 495.410156 534.664062 C 495.242188 534.917969 495.09375 535.191406 494.976562 535.476562 C 494.859375 535.761719 494.769531 536.054688 494.710938 536.359375 C 494.648438 536.660156 494.617188 536.96875 494.621094 537.277344 C 494.617188 537.585938 494.648438 537.890625 494.710938 538.191406 C 494.769531 538.496094 494.859375 538.789062 494.976562 539.074219 C 495.09375 539.359375 495.242188 539.632812 495.410156 539.886719 C 495.582031 540.144531 495.777344 540.382812 495.996094 540.601562 C 496.214844 540.820312 496.453125 541.015625 496.710938 541.1875 C 496.96875 541.355469 497.238281 541.503906 497.523438 541.621094 C 497.808594 541.738281 498.101562 541.828125 498.40625 541.886719 C 498.710938 541.949219 499.015625 541.976562 499.324219 541.976562 L 703.289062 541.976562 C 703.597656 541.976562 703.902344 541.949219 704.207031 541.886719 C 704.511719 541.828125 704.804688 541.738281 705.089844 541.621094 C 705.375 541.503906 705.644531 541.355469 705.902344 541.1875 C 706.160156 541.015625 706.398438 540.820312 706.617188 540.601562 C 706.835938 540.382812 707.03125 540.144531 707.203125 539.886719 C 707.371094 539.632812 707.519531 539.359375 707.636719 539.074219 C 707.753906 538.789062 707.84375 538.496094 707.902344 538.191406 C 707.964844 537.890625 707.996094 537.585938 707.996094 537.277344 C 707.996094 536.96875 707.964844 536.660156 707.902344 536.359375 C 707.84375 536.054688 707.753906 535.761719 707.636719 535.476562 C 707.519531 535.191406 707.371094 534.917969 707.203125 534.664062 C 707.03125 534.40625 706.835938 534.167969 706.617188 533.949219 C 706.398438 533.730469 706.160156 533.535156 705.902344 533.367188 C 705.644531 533.195312 705.375 533.050781 705.089844 532.929688 C 704.804688 532.8125 704.511719 532.722656 704.207031 532.664062 C 703.902344 532.601562 703.597656 532.574219 703.289062 532.574219 Z M 703.289062 532.574219 "/><path style=" stroke:none;fill-rule:nonzero;fill:#000000;fill-opacity:1;" d="M 493.679688 199.667969 C 493.988281 199.667969 494.292969 199.636719 494.597656 199.574219 C 494.898438 199.515625 495.191406 199.425781 495.480469 199.308594 C 495.765625 199.191406 496.035156 199.046875 496.292969 198.875 C 496.550781 198.703125 496.785156 198.507812 497.003906 198.289062 C 497.222656 198.070312 497.417969 197.832031 497.589844 197.578125 C 497.761719 197.320312 497.90625 197.046875 498.023438 196.761719 C 498.144531 196.476562 498.234375 196.183594 498.292969 195.882812 C 498.351562 195.578125 498.382812 195.273438 498.382812 194.964844 L 498.382812 167.546875 L 511.886719 167.546875 C 512.601562 167.546875 513.3125 167.507812 514.019531 167.4375 C 514.730469 167.367188 515.433594 167.261719 516.132812 167.121094 C 516.832031 166.980469 517.523438 166.804688 518.207031 166.597656 C 518.886719 166.390625 519.558594 166.148438 520.214844 165.875 C 520.875 165.601562 521.519531 165.296875 522.148438 164.960938 C 522.773438 164.625 523.386719 164.257812 523.980469 163.863281 C 524.570312 163.464844 525.144531 163.042969 525.695312 162.589844 C 526.246094 162.136719 526.773438 161.660156 527.277344 161.15625 C 527.78125 160.652344 528.257812 160.125 528.710938 159.574219 C 529.164062 159.023438 529.589844 158.449219 529.984375 157.859375 C 530.382812 157.265625 530.75 156.65625 531.085938 156.027344 C 531.421875 155.398438 531.726562 154.757812 532 154.097656 C 532.273438 153.441406 532.515625 152.769531 532.722656 152.089844 C 532.929688 151.40625 533.105469 150.714844 533.246094 150.019531 C 533.386719 149.320312 533.492188 148.613281 533.5625 147.90625 C 533.632812 147.195312 533.667969 146.484375 533.671875 145.773438 L 533.671875 144.691406 C 533.667969 143.980469 533.632812 143.269531 533.5625 142.558594 C 533.492188 141.847656 533.386719 141.144531 533.246094 140.445312 C 533.105469 139.75 532.929688 139.058594 532.722656 138.375 C 532.515625 137.695312 532.273438 137.023438 532 136.367188 C 531.726562 135.707031 531.421875 135.066406 531.085938 134.4375 C 530.75 133.808594 530.382812 133.199219 529.984375 132.605469 C 529.589844 132.011719 529.164062 131.441406 528.710938 130.890625 C 528.257812 130.339844 527.78125 129.8125 527.277344 129.308594 C 526.773438 128.804688 526.246094 128.328125 525.695312 127.875 C 525.144531 127.421875 524.570312 126.996094 523.976562 126.601562 C 523.386719 126.207031 522.773438 125.839844 522.148438 125.503906 C 521.519531 125.167969 520.875 124.859375 520.214844 124.585938 C 519.558594 124.3125 518.886719 124.074219 518.207031 123.867188 C 517.523438 123.65625 516.832031 123.484375 516.132812 123.34375 C 515.433594 123.203125 514.730469 123.097656 514.019531 123.027344 C 513.3125 122.957031 512.601562 122.917969 511.886719 122.917969 L 493.679688 122.917969 C 493.371094 122.917969 493.0625 122.949219 492.761719 123.007812 C 492.457031 123.070312 492.164062 123.15625 491.878906 123.277344 C 491.59375 123.394531 491.320312 123.539062 491.0625 123.710938 C 490.808594 123.882812 490.570312 124.078125 490.351562 124.296875 C 490.132812 124.511719 489.9375 124.75 489.765625 125.007812 C 489.59375 125.265625 489.449219 125.535156 489.332031 125.820312 C 489.214844 126.105469 489.125 126.398438 489.0625 126.703125 C 489.003906 127.007812 488.972656 127.3125 488.972656 127.621094 L 488.972656 194.964844 C 488.972656 195.273438 489.003906 195.578125 489.0625 195.882812 C 489.125 196.183594 489.214844 196.476562 489.332031 196.761719 C 489.449219 197.046875 489.59375 197.320312 489.765625 197.578125 C 489.9375 197.832031 490.132812 198.070312 490.351562 198.289062 C 490.570312 198.507812 490.808594 198.703125 491.0625 198.875 C 491.320312 199.046875 491.59375 199.191406 491.878906 199.308594 C 492.164062 199.425781 492.457031 199.515625 492.761719 199.574219 C 493.0625 199.636719 493.371094 199.667969 493.679688 199.667969 Z M 524.261719 144.691406 L 524.261719 145.773438 C 524.261719 146.585938 524.183594 147.390625 524.023438 148.1875 C 523.863281 148.984375 523.628906 149.753906 523.320312 150.507812 C 523.007812 151.257812 522.628906 151.96875 522.175781 152.644531 C 521.722656 153.320312 521.210938 153.945312 520.636719 154.519531 C 520.0625 155.09375 519.4375 155.605469 518.761719 156.058594 C 518.085938 156.507812 517.371094 156.890625 516.621094 157.199219 C 515.871094 157.511719 515.097656 157.746094 514.300781 157.902344 C 513.503906 158.0625 512.699219 158.140625 511.886719 158.140625 L 498.382812 158.140625 L 498.382812 132.324219 L 511.886719 132.324219 C 512.699219 132.324219 513.503906 132.402344 514.300781 132.5625 C 515.097656 132.71875 515.871094 132.953125 516.621094 133.265625 C 517.371094 133.574219 518.085938 133.957031 518.761719 134.40625 C 519.4375 134.859375 520.0625 135.371094 520.636719 135.945312 C 521.210938 136.519531 521.722656 137.144531 522.175781 137.820312 C 522.628906 138.496094 523.007812 139.207031 523.320312 139.957031 C 523.628906 140.707031 523.863281 141.480469 524.023438 142.277344 C 524.183594 143.074219 524.261719 143.878906 524.261719 144.691406 Z M 524.261719 144.691406 "/><path style=" stroke:none;fill-rule:nonzero;fill:#000000;fill-opacity:1;" d="M 538.566406 199.335938 C 538.851562 199.453125 539.144531 199.539062 539.449219 199.597656 C 539.75 199.652344 540.054688 199.679688 540.363281 199.679688 C 540.671875 199.675781 540.976562 199.644531 541.277344 199.582031 C 541.582031 199.519531 541.875 199.425781 542.15625 199.308594 C 542.441406 199.1875 542.710938 199.039062 542.964844 198.867188 C 543.222656 198.695312 543.457031 198.5 543.671875 198.277344 C 543.890625 198.058594 544.082031 197.820312 544.253906 197.5625 C 544.421875 197.308594 544.566406 197.035156 544.679688 196.75 L 556.679688 167.546875 L 579.308594 167.546875 L 591.355469 196.75 C 591.472656 197.035156 591.617188 197.308594 591.789062 197.566406 C 591.957031 197.820312 592.152344 198.058594 592.371094 198.28125 C 592.589844 198.5 592.824219 198.695312 593.082031 198.867188 C 593.339844 199.039062 593.609375 199.183594 593.894531 199.304688 C 594.179688 199.421875 594.472656 199.511719 594.777344 199.574219 C 595.078125 199.632812 595.386719 199.664062 595.695312 199.667969 C 596.003906 199.667969 596.308594 199.636719 596.613281 199.578125 C 596.914062 199.519531 597.210938 199.429688 597.496094 199.3125 C 597.78125 199.195312 598.054688 199.050781 598.308594 198.882812 C 598.566406 198.710938 598.804688 198.515625 599.023438 198.296875 C 599.242188 198.082031 599.441406 197.84375 599.613281 197.585938 C 599.785156 197.332031 599.929688 197.0625 600.050781 196.777344 C 600.167969 196.492188 600.257812 196.195312 600.320312 195.894531 C 600.382812 195.59375 600.410156 195.285156 600.414062 194.976562 C 600.414062 194.667969 600.382812 194.363281 600.324219 194.058594 C 600.265625 193.757812 600.175781 193.460938 600.058594 193.175781 L 572.535156 125.832031 C 572.359375 125.402344 572.125 125.007812 571.832031 124.648438 C 571.535156 124.289062 571.199219 123.980469 570.8125 123.71875 C 570.425781 123.460938 570.011719 123.261719 569.570312 123.125 C 569.125 122.988281 568.671875 122.921875 568.207031 122.917969 C 567.738281 122.914062 567.28125 122.980469 566.832031 123.117188 C 566.382812 123.25 565.960938 123.449219 565.574219 123.707031 C 565.183594 123.96875 564.839844 124.277344 564.542969 124.640625 C 564.246094 125.003906 564.007812 125.398438 563.832031 125.832031 L 549.011719 161.011719 L 535.976562 193.175781 C 535.859375 193.464844 535.769531 193.757812 535.707031 194.0625 C 535.648438 194.367188 535.617188 194.675781 535.617188 194.988281 C 535.621094 195.296875 535.652344 195.605469 535.710938 195.910156 C 535.773438 196.214844 535.867188 196.507812 535.984375 196.796875 C 536.105469 197.082031 536.253906 197.355469 536.425781 197.613281 C 536.601562 197.867188 536.800781 198.105469 537.019531 198.324219 C 537.242188 198.542969 537.484375 198.738281 537.742188 198.90625 C 538.003906 199.078125 538.277344 199.222656 538.566406 199.335938 Z M 567.832031 139.988281 L 575.265625 158.140625 L 560.539062 158.140625 Z M 567.832031 139.988281 "/><path style=" stroke:none;fill-rule:nonzero;fill:#000000;fill-opacity:1;" d="M 641.277344 190.261719 L 619.117188 190.261719 C 618.808594 190.261719 618.5 190.292969 618.199219 190.351562 C 617.894531 190.414062 617.601562 190.503906 617.316406 190.621094 C 617.03125 190.738281 616.761719 190.882812 616.503906 191.054688 C 616.25 191.226562 616.011719 191.421875 615.792969 191.640625 C 615.574219 191.859375 615.378906 192.097656 615.207031 192.351562 C 615.035156 192.609375 614.890625 192.878906 614.773438 193.164062 C 614.65625 193.449219 614.566406 193.746094 614.507812 194.046875 C 614.445312 194.347656 614.417969 194.65625 614.417969 194.964844 C 614.417969 195.273438 614.445312 195.578125 614.507812 195.878906 C 614.566406 196.183594 614.65625 196.476562 614.773438 196.761719 C 614.890625 197.046875 615.035156 197.316406 615.207031 197.574219 C 615.378906 197.832031 615.574219 198.070312 615.792969 198.285156 C 616.011719 198.503906 616.25 198.699219 616.503906 198.871094 C 616.761719 199.042969 617.03125 199.1875 617.316406 199.304688 C 617.601562 199.425781 617.894531 199.515625 618.199219 199.574219 C 618.5 199.636719 618.808594 199.664062 619.117188 199.667969 L 641.277344 199.667969 C 642.167969 199.667969 643.046875 199.578125 643.917969 199.40625 C 644.792969 199.234375 645.640625 198.976562 646.460938 198.636719 C 647.285156 198.296875 648.066406 197.878906 648.804688 197.382812 C 649.542969 196.890625 650.230469 196.328125 650.859375 195.699219 C 651.488281 195.070312 652.050781 194.386719 652.542969 193.648438 C 653.039062 192.90625 653.453125 192.128906 653.796875 191.304688 C 654.136719 190.484375 654.394531 189.636719 654.566406 188.765625 C 654.738281 187.890625 654.828125 187.011719 654.828125 186.121094 L 654.828125 170.179688 C 654.828125 169.289062 654.742188 168.40625 654.566406 167.535156 C 654.394531 166.660156 654.136719 165.8125 653.796875 164.988281 C 653.457031 164.167969 653.039062 163.386719 652.546875 162.644531 C 652.050781 161.902344 651.488281 161.21875 650.859375 160.585938 C 650.230469 159.957031 649.546875 159.390625 648.808594 158.894531 C 648.070312 158.398438 647.289062 157.980469 646.464844 157.636719 C 645.644531 157.292969 644.796875 157.035156 643.921875 156.859375 C 643.050781 156.683594 642.167969 156.59375 641.277344 156.589844 L 627.960938 156.589844 C 627.6875 156.589844 627.417969 156.5625 627.152344 156.511719 C 626.886719 156.457031 626.628906 156.378906 626.375 156.273438 C 626.125 156.171875 625.886719 156.042969 625.660156 155.890625 C 625.433594 155.742188 625.226562 155.570312 625.035156 155.378906 C 624.839844 155.183594 624.667969 154.976562 624.519531 154.75 C 624.367188 154.523438 624.238281 154.285156 624.136719 154.035156 C 624.03125 153.785156 623.953125 153.523438 623.898438 153.257812 C 623.847656 152.992188 623.820312 152.722656 623.820312 152.449219 L 623.820312 136.460938 C 623.820312 136.191406 623.847656 135.921875 623.898438 135.652344 C 623.953125 135.386719 624.03125 135.128906 624.136719 134.878906 C 624.238281 134.625 624.367188 134.386719 624.519531 134.164062 C 624.667969 133.9375 624.839844 133.726562 625.035156 133.535156 C 625.226562 133.34375 625.433594 133.171875 625.660156 133.019531 C 625.886719 132.871094 626.125 132.742188 626.375 132.636719 C 626.628906 132.535156 626.886719 132.457031 627.152344 132.402344 C 627.417969 132.351562 627.6875 132.324219 627.960938 132.324219 L 650.121094 132.324219 C 650.429688 132.324219 650.738281 132.292969 651.039062 132.234375 C 651.34375 132.171875 651.636719 132.082031 651.921875 131.964844 C 652.207031 131.847656 652.480469 131.703125 652.734375 131.53125 C 652.992188 131.359375 653.230469 131.164062 653.449219 130.945312 C 653.667969 130.726562 653.863281 130.488281 654.035156 130.234375 C 654.207031 129.976562 654.351562 129.707031 654.46875 129.421875 C 654.585938 129.136719 654.675781 128.839844 654.738281 128.539062 C 654.796875 128.234375 654.828125 127.929688 654.828125 127.621094 C 654.828125 127.3125 654.796875 127.007812 654.738281 126.703125 C 654.675781 126.398438 654.585938 126.105469 654.46875 125.820312 C 654.351562 125.535156 654.207031 125.265625 654.035156 125.007812 C 653.863281 124.75 653.667969 124.511719 653.449219 124.296875 C 653.230469 124.078125 652.992188 123.882812 652.734375 123.710938 C 652.480469 123.539062 652.207031 123.394531 651.921875 123.277344 C 651.636719 123.15625 651.34375 123.070312 651.039062 123.007812 C 650.738281 122.949219 650.429688 122.917969 650.121094 122.917969 L 627.960938 122.917969 C 627.070312 122.917969 626.191406 123.003906 625.316406 123.179688 C 624.445312 123.351562 623.597656 123.609375 622.773438 123.949219 C 621.953125 124.289062 621.171875 124.707031 620.433594 125.199219 C 619.691406 125.695312 619.007812 126.257812 618.378906 126.882812 C 617.75 127.511719 617.1875 128.199219 616.695312 128.9375 C 616.199219 129.675781 615.78125 130.457031 615.441406 131.277344 C 615.101562 132.101562 614.84375 132.945312 614.671875 133.820312 C 614.496094 134.691406 614.410156 135.574219 614.410156 136.460938 L 614.410156 152.449219 C 614.410156 153.339844 614.496094 154.222656 614.671875 155.09375 C 614.84375 155.964844 615.101562 156.8125 615.441406 157.632812 C 615.78125 158.457031 616.199219 159.234375 616.695312 159.976562 C 617.1875 160.714844 617.75 161.398438 618.378906 162.027344 C 619.007812 162.65625 619.691406 163.21875 620.433594 163.710938 C 621.171875 164.207031 621.953125 164.625 622.773438 164.964844 C 623.597656 165.304688 624.445312 165.5625 625.316406 165.734375 C 626.191406 165.90625 627.070312 165.996094 627.960938 165.996094 L 641.277344 165.996094 C 641.550781 165.996094 641.820312 166.027344 642.085938 166.082031 C 642.355469 166.140625 642.613281 166.21875 642.863281 166.328125 C 643.117188 166.433594 643.355469 166.5625 643.582031 166.714844 C 643.804688 166.871094 644.015625 167.042969 644.207031 167.238281 C 644.398438 167.429688 644.570312 167.640625 644.722656 167.871094 C 644.871094 168.097656 645 168.335938 645.101562 168.589844 C 645.207031 168.839844 645.285156 169.101562 645.335938 169.371094 C 645.390625 169.636719 645.417969 169.90625 645.417969 170.179688 L 645.417969 186.121094 C 645.417969 186.394531 645.390625 186.664062 645.335938 186.929688 C 645.285156 187.195312 645.207031 187.457031 645.101562 187.707031 C 644.996094 187.957031 644.871094 188.195312 644.71875 188.421875 C 644.566406 188.648438 644.394531 188.855469 644.203125 189.046875 C 644.011719 189.242188 643.800781 189.414062 643.578125 189.5625 C 643.351562 189.714844 643.113281 189.84375 642.859375 189.945312 C 642.609375 190.050781 642.351562 190.128906 642.085938 190.179688 C 641.816406 190.234375 641.546875 190.261719 641.277344 190.261719 Z M 641.277344 190.261719 "/><path style=" stroke:none;fill-rule:nonzero;fill:#000000;fill-opacity:1;" d="M 699.996094 190.261719 L 677.835938 190.261719 C 677.527344 190.261719 677.21875 190.289062 676.914062 190.351562 C 676.613281 190.410156 676.316406 190.5 676.03125 190.617188 C 675.746094 190.734375 675.476562 190.878906 675.21875 191.050781 C 674.960938 191.222656 674.722656 191.417969 674.503906 191.636719 C 674.285156 191.855469 674.089844 192.09375 673.917969 192.347656 C 673.746094 192.605469 673.601562 192.878906 673.480469 193.164062 C 673.363281 193.449219 673.273438 193.742188 673.214844 194.046875 C 673.152344 194.347656 673.125 194.65625 673.125 194.964844 C 673.125 195.273438 673.152344 195.578125 673.214844 195.882812 C 673.273438 196.183594 673.363281 196.480469 673.480469 196.765625 C 673.601562 197.050781 673.746094 197.320312 673.917969 197.578125 C 674.089844 197.835938 674.285156 198.074219 674.503906 198.292969 C 674.722656 198.507812 674.960938 198.703125 675.21875 198.875 C 675.476562 199.046875 675.746094 199.191406 676.03125 199.308594 C 676.316406 199.429688 676.613281 199.515625 676.914062 199.578125 C 677.21875 199.636719 677.527344 199.667969 677.835938 199.667969 L 699.996094 199.667969 C 700.890625 199.675781 701.777344 199.597656 702.660156 199.429688 C 703.539062 199.265625 704.394531 199.011719 705.222656 198.675781 C 706.054688 198.339844 706.84375 197.925781 707.59375 197.433594 C 708.339844 196.941406 709.03125 196.378906 709.667969 195.75 C 710.304688 195.121094 710.875 194.433594 711.375 193.691406 C 711.875 192.949219 712.296875 192.164062 712.644531 191.339844 C 712.988281 190.511719 713.246094 189.660156 713.421875 188.78125 C 713.601562 187.90625 713.6875 187.019531 713.6875 186.121094 L 713.6875 170.179688 C 713.6875 169.289062 713.601562 168.402344 713.425781 167.527344 C 713.253906 166.652344 712.992188 165.804688 712.652344 164.980469 C 712.3125 164.15625 711.890625 163.371094 711.394531 162.628906 C 710.898438 161.886719 710.335938 161.199219 709.703125 160.570312 C 709.074219 159.9375 708.386719 159.375 707.644531 158.878906 C 706.902344 158.382812 706.117188 157.964844 705.292969 157.625 C 704.46875 157.28125 703.617188 157.023438 702.742188 156.851562 C 701.867188 156.675781 700.984375 156.589844 700.089844 156.589844 L 686.726562 156.589844 C 686.453125 156.589844 686.183594 156.5625 685.917969 156.511719 C 685.648438 156.457031 685.386719 156.378906 685.136719 156.273438 C 684.882812 156.171875 684.644531 156.042969 684.414062 155.894531 C 684.1875 155.742188 683.976562 155.570312 683.78125 155.378906 C 683.589844 155.1875 683.414062 154.980469 683.261719 154.753906 C 683.109375 154.527344 682.980469 154.289062 682.871094 154.039062 C 682.765625 153.785156 682.683594 153.527344 682.628906 153.261719 C 682.574219 152.992188 682.542969 152.722656 682.539062 152.449219 L 682.539062 136.460938 C 682.542969 136.1875 682.574219 135.917969 682.628906 135.652344 C 682.683594 135.382812 682.765625 135.125 682.871094 134.875 C 682.980469 134.625 683.109375 134.382812 683.261719 134.160156 C 683.414062 133.933594 683.589844 133.722656 683.78125 133.53125 C 683.976562 133.339844 684.1875 133.167969 684.414062 133.019531 C 684.644531 132.867188 684.882812 132.742188 685.136719 132.636719 C 685.386719 132.535156 685.648438 132.457031 685.917969 132.402344 C 686.183594 132.351562 686.453125 132.324219 686.726562 132.324219 L 708.980469 132.324219 C 709.292969 132.324219 709.597656 132.292969 709.898438 132.234375 C 710.203125 132.171875 710.496094 132.082031 710.78125 131.964844 C 711.070312 131.847656 711.339844 131.703125 711.597656 131.53125 C 711.851562 131.359375 712.089844 131.164062 712.308594 130.945312 C 712.527344 130.726562 712.722656 130.488281 712.894531 130.234375 C 713.066406 129.976562 713.210938 129.707031 713.328125 129.421875 C 713.449219 129.136719 713.535156 128.839844 713.597656 128.539062 C 713.65625 128.234375 713.6875 127.929688 713.6875 127.621094 C 713.6875 127.3125 713.65625 127.007812 713.597656 126.703125 C 713.535156 126.398438 713.449219 126.105469 713.328125 125.820312 C 713.210938 125.535156 713.066406 125.265625 712.894531 125.007812 C 712.722656 124.75 712.527344 124.511719 712.308594 124.296875 C 712.089844 124.078125 711.851562 123.882812 711.597656 123.710938 C 711.339844 123.539062 711.070312 123.394531 710.78125 123.277344 C 710.496094 123.15625 710.203125 123.070312 709.898438 123.007812 C 709.597656 122.949219 709.292969 122.917969 708.980469 122.917969 L 686.726562 122.917969 C 685.835938 122.917969 684.953125 123.003906 684.082031 123.179688 C 683.207031 123.351562 682.359375 123.609375 681.535156 123.949219 C 680.710938 124.289062 679.929688 124.703125 679.1875 125.199219 C 678.445312 125.691406 677.761719 126.253906 677.128906 126.882812 C 676.496094 127.511719 675.933594 128.195312 675.4375 128.933594 C 674.941406 129.671875 674.519531 130.453125 674.179688 131.273438 C 673.835938 132.097656 673.574219 132.945312 673.398438 133.816406 C 673.222656 134.691406 673.132812 135.570312 673.128906 136.460938 L 673.128906 152.449219 C 673.132812 153.339844 673.222656 154.222656 673.398438 155.097656 C 673.574219 155.96875 673.835938 156.816406 674.179688 157.636719 C 674.519531 158.460938 674.941406 159.238281 675.4375 159.980469 C 675.933594 160.71875 676.496094 161.402344 677.128906 162.03125 C 677.761719 162.660156 678.445312 163.21875 679.1875 163.714844 C 679.929688 164.207031 680.710938 164.625 681.535156 164.964844 C 682.359375 165.304688 683.207031 165.5625 684.082031 165.734375 C 684.953125 165.90625 685.835938 165.996094 686.726562 165.996094 L 699.996094 165.996094 C 700.269531 165.996094 700.542969 166.023438 700.8125 166.074219 C 701.082031 166.128906 701.34375 166.207031 701.597656 166.3125 C 701.851562 166.417969 702.09375 166.546875 702.320312 166.699219 C 702.550781 166.851562 702.761719 167.027344 702.957031 167.21875 C 703.152344 167.414062 703.324219 167.625 703.476562 167.855469 C 703.628906 168.082031 703.757812 168.324219 703.863281 168.578125 C 703.96875 168.832031 704.050781 169.09375 704.101562 169.363281 C 704.15625 169.632812 704.183594 169.90625 704.183594 170.179688 L 704.183594 186.121094 C 704.183594 186.394531 704.15625 186.667969 704.101562 186.9375 C 704.046875 187.203125 703.96875 187.464844 703.863281 187.71875 C 703.757812 187.96875 703.628906 188.210938 703.476562 188.4375 C 703.324219 188.664062 703.148438 188.875 702.953125 189.066406 C 702.757812 189.257812 702.546875 189.429688 702.320312 189.578125 C 702.089844 189.730469 701.847656 189.855469 701.59375 189.960938 C 701.339844 190.0625 701.078125 190.140625 700.808594 190.191406 C 700.539062 190.238281 700.269531 190.265625 699.996094 190.261719 Z M 699.996094 190.261719 "/><path style=" stroke:none;fill-rule:nonzero;fill:#000000;fill-opacity:1;" d="M 601.285156 484.277344 C 606.273438 484.285156 611.246094 483.988281 616.199219 483.382812 C 618.835938 483.0625 621.464844 482.660156 624.074219 482.175781 C 626.6875 481.6875 629.285156 481.117188 631.859375 480.464844 C 634.4375 479.8125 636.988281 479.078125 639.519531 478.257812 C 642.046875 477.441406 644.546875 476.542969 647.019531 475.566406 C 649.488281 474.589844 651.925781 473.535156 654.332031 472.398438 C 656.734375 471.265625 659.097656 470.054688 661.425781 468.769531 C 663.75 467.484375 666.03125 466.125 668.269531 464.691406 C 670.507812 463.261719 672.699219 461.757812 674.84375 460.183594 C 676.984375 458.613281 679.074219 456.972656 681.109375 455.265625 C 683.144531 453.558594 685.125 451.789062 687.046875 449.953125 C 688.972656 448.117188 690.832031 446.226562 692.632812 444.273438 C 694.4375 442.316406 696.171875 440.308594 697.84375 438.242188 C 699.515625 436.179688 701.121094 434.0625 702.65625 431.894531 C 704.191406 429.726562 705.65625 427.511719 707.050781 425.25 C 708.445312 422.988281 709.765625 420.683594 711.011719 418.335938 C 712.257812 415.988281 713.425781 413.605469 714.519531 411.183594 C 715.609375 408.761719 716.625 406.308594 717.558594 403.820312 C 718.492188 401.332031 719.347656 398.820312 720.121094 396.277344 C 720.894531 393.734375 721.585938 391.171875 722.195312 388.585938 C 722.800781 386 723.328125 383.398438 723.769531 380.777344 C 724.210938 378.15625 724.566406 375.527344 724.839844 372.882812 C 725.109375 370.242188 725.296875 367.59375 725.402344 364.9375 C 725.503906 362.285156 725.519531 359.628906 725.449219 356.972656 C 725.382812 354.316406 725.230469 351.667969 724.988281 349.019531 C 724.75 346.375 724.429688 343.738281 724.019531 341.113281 C 723.613281 338.488281 723.121094 335.878906 722.542969 333.285156 C 721.96875 330.691406 721.308594 328.121094 720.570312 325.570312 C 719.828125 323.019531 719.003906 320.492188 718.101562 317.996094 C 717.199219 315.496094 716.214844 313.027344 715.15625 310.59375 C 714.09375 308.15625 712.953125 305.757812 711.738281 303.398438 C 710.523438 301.035156 709.230469 298.714844 707.867188 296.433594 C 706.5 294.15625 705.066406 291.921875 703.554688 289.734375 C 702.046875 287.546875 700.46875 285.410156 698.824219 283.324219 C 697.179688 281.238281 695.46875 279.207031 693.691406 277.230469 C 691.914062 275.253906 690.078125 273.335938 688.179688 271.480469 C 686.277344 269.621094 684.320312 267.824219 682.308594 266.09375 C 680.292969 264.359375 678.222656 262.695312 676.101562 261.09375 C 673.980469 259.496094 671.808594 257.964844 669.589844 256.503906 C 667.367188 255.042969 665.105469 253.65625 662.792969 252.339844 C 660.484375 251.023438 658.136719 249.785156 655.746094 248.621094 C 653.359375 247.457031 650.933594 246.371094 648.476562 245.359375 C 646.015625 244.351562 643.527344 243.421875 641.007812 242.574219 C 638.492188 241.726562 635.949219 240.957031 633.378906 240.273438 C 630.8125 239.585938 628.226562 238.984375 625.617188 238.464844 C 623.011719 237.945312 620.390625 237.507812 617.757812 237.15625 C 615.121094 236.804688 612.480469 236.539062 609.828125 236.355469 C 607.175781 236.175781 604.519531 236.078125 601.863281 236.066406 C 599.203125 236.054688 596.550781 236.128906 593.894531 236.289062 C 591.242188 236.445312 588.597656 236.691406 585.960938 237.019531 C 583.324219 237.347656 580.699219 237.761719 578.085938 238.257812 C 575.476562 238.753906 572.882812 239.335938 570.3125 240 C 567.738281 240.664062 565.1875 241.410156 562.660156 242.234375 C 560.136719 243.0625 557.640625 243.96875 555.171875 244.957031 C 552.703125 245.945312 550.269531 247.011719 547.871094 248.152344 C 545.472656 249.296875 543.113281 250.515625 540.792969 251.8125 C 538.472656 253.105469 536.195312 254.476562 533.960938 255.917969 C 531.730469 257.359375 529.546875 258.871094 527.410156 260.449219 C 525.273438 262.03125 523.191406 263.679688 521.160156 265.394531 C 519.132812 267.109375 517.160156 268.890625 515.242188 270.730469 C 513.328125 272.574219 511.472656 274.472656 509.679688 276.433594 C 507.886719 278.394531 506.160156 280.410156 504.496094 282.484375 C 502.832031 284.554688 501.234375 286.679688 499.707031 288.851562 C 498.179688 291.027344 496.726562 293.246094 495.339844 295.515625 C 493.957031 297.78125 492.644531 300.09375 491.410156 302.445312 C 490.171875 304.796875 489.011719 307.183594 487.929688 309.609375 C 486.847656 312.035156 485.84375 314.496094 484.917969 316.984375 C 483.992188 319.476562 483.148438 321.992188 482.386719 324.539062 C 481.625 327.082031 480.941406 329.648438 480.34375 332.238281 C 479.746094 334.828125 479.230469 337.429688 478.800781 340.050781 C 478.371094 342.675781 478.023438 345.308594 477.761719 347.949219 C 477.5 350.59375 477.324219 353.242188 477.230469 355.898438 C 477.140625 358.554688 477.132812 361.207031 477.214844 363.863281 C 477.292969 366.519531 477.457031 369.167969 477.707031 371.8125 C 477.957031 374.460938 478.289062 377.09375 478.707031 379.71875 C 479.125 382.339844 479.628906 384.949219 480.214844 387.539062 C 480.800781 390.128906 481.46875 392.699219 482.222656 395.246094 C 482.972656 397.796875 483.804688 400.316406 484.71875 402.8125 C 485.632812 405.308594 486.625 407.769531 487.695312 410.203125 C 488.765625 412.632812 489.914062 415.027344 491.140625 417.382812 C 492.367188 419.742188 493.664062 422.058594 495.039062 424.332031 C 496.414062 426.605469 497.859375 428.832031 499.375 431.015625 C 500.894531 433.195312 502.480469 435.324219 504.132812 437.40625 C 505.789062 439.484375 507.507812 441.507812 509.289062 443.476562 C 511.074219 445.449219 512.921875 447.355469 514.828125 449.207031 C 516.734375 451.058594 518.699219 452.847656 520.71875 454.570312 C 522.742188 456.296875 524.816406 457.953125 526.945312 459.542969 C 529.074219 461.136719 531.25 462.65625 533.476562 464.109375 C 535.703125 465.5625 537.972656 466.941406 540.289062 468.246094 C 542.601562 469.550781 544.957031 470.78125 547.351562 471.9375 C 549.742188 473.089844 552.171875 474.167969 554.632812 475.167969 C 557.097656 476.167969 559.589844 477.085938 562.113281 477.925781 C 564.632812 478.761719 567.179688 479.519531 569.75 480.195312 C 572.320312 480.871094 574.910156 481.464844 577.519531 481.972656 C 580.128906 482.484375 582.75 482.90625 585.386719 483.25 C 588.019531 483.589844 590.664062 483.847656 593.316406 484.015625 C 595.96875 484.1875 598.625 484.273438 601.285156 484.277344 Z M 567.5 250.738281 C 561.183594 257.097656 555.726562 264.125 551.125 271.816406 C 546.523438 279.507812 542.917969 287.640625 540.304688 296.214844 C 530.628906 294.273438 521.109375 291.75 511.746094 288.640625 C 515.324219 284.191406 519.210938 280.027344 523.40625 276.152344 C 527.605469 272.277344 532.066406 268.734375 536.789062 265.523438 C 541.511719 262.3125 546.449219 259.46875 551.59375 256.988281 C 556.742188 254.511719 562.042969 252.429688 567.5 250.738281 Z M 690.820312 288.640625 C 681.457031 291.75 671.9375 294.273438 662.261719 296.214844 C 659.648438 287.640625 656.042969 279.507812 651.441406 271.816406 C 646.839844 264.125 641.382812 257.097656 635.066406 250.738281 C 640.523438 252.425781 645.828125 254.507812 650.972656 256.984375 C 656.121094 259.464844 661.058594 262.308594 665.78125 265.519531 C 670.503906 268.730469 674.964844 272.273438 679.164062 276.148438 C 683.359375 280.023438 687.246094 284.1875 690.820312 288.640625 Z M 696.5625 423.894531 C 686.238281 420.324219 675.730469 417.425781 665.035156 415.191406 C 669.484375 398.699219 671.820312 381.910156 672.046875 364.828125 L 715.804688 364.828125 C 715.613281 370.074219 715.054688 375.285156 714.136719 380.457031 C 713.21875 385.628906 711.945312 390.710938 710.316406 395.707031 C 708.691406 400.699219 706.726562 405.558594 704.421875 410.277344 C 702.117188 415 699.496094 419.535156 696.5625 423.894531 Z M 690.632812 432.074219 C 687.058594 436.496094 683.179688 440.628906 678.996094 444.476562 C 674.808594 448.324219 670.363281 451.839844 665.65625 455.027344 C 660.949219 458.214844 656.03125 461.035156 650.90625 463.496094 C 645.777344 465.953125 640.5 468.019531 635.066406 469.699219 C 641.382812 463.335938 646.839844 456.3125 651.441406 448.621094 C 656.042969 440.925781 659.648438 432.792969 662.261719 424.222656 C 671.9375 426.164062 681.457031 428.6875 690.820312 431.792969 Z M 511.839844 432.074219 C 521.203125 428.96875 530.726562 426.445312 540.398438 424.503906 C 543.011719 433.078125 546.621094 441.210938 551.21875 448.902344 C 555.820312 456.59375 561.277344 463.621094 567.59375 469.980469 C 562.121094 468.277344 556.804688 466.183594 551.644531 463.6875 C 546.484375 461.195312 541.539062 458.332031 536.804688 455.101562 C 532.074219 451.867188 527.605469 448.304688 523.40625 444.40625 C 519.207031 440.507812 515.320312 436.320312 511.746094 431.839844 Z M 652.992188 298.234375 C 637.417969 300.867188 621.734375 302.28125 605.941406 302.46875 L 605.941406 246.035156 C 625.609375 248.761719 642.6875 268.84375 652.851562 298 Z M 605.941406 474.730469 L 605.941406 418.296875 C 621.734375 418.484375 637.417969 419.894531 652.992188 422.527344 C 642.6875 451.6875 625.609375 471.71875 605.988281 474.496094 Z M 605.941406 408.890625 L 605.941406 364.828125 L 662.402344 364.828125 C 662.132812 381.265625 659.8125 397.414062 655.4375 413.265625 C 639.070312 410.492188 622.589844 409.019531 605.988281 408.84375 Z M 605.941406 355.609375 L 605.941406 311.636719 C 622.628906 311.382812 639.1875 309.8125 655.625 306.9375 C 660.019531 322.800781 662.359375 338.960938 662.636719 355.421875 Z M 596.53125 246.035156 L 596.53125 302.46875 C 580.738281 302.28125 565.054688 300.871094 549.480469 298.234375 C 559.925781 268.84375 576.957031 248.761719 596.578125 245.988281 Z M 596.53125 311.875 L 596.53125 355.421875 L 540.070312 355.421875 C 540.359375 338.96875 542.679688 322.804688 547.035156 306.9375 C 563.425781 309.808594 579.941406 311.375 596.578125 311.636719 Z M 596.53125 365.203125 L 596.53125 409.078125 C 579.84375 409.335938 563.28125 410.902344 546.84375 413.78125 C 542.46875 397.757812 540.160156 381.4375 539.929688 364.828125 Z M 596.53125 418.484375 L 596.53125 474.917969 C 576.910156 472.144531 559.878906 452.109375 549.480469 422.90625 C 565.058594 420.125 580.757812 418.574219 596.578125 418.25 Z M 672.046875 355.421875 C 671.8125 338.371094 669.476562 321.613281 665.035156 305.148438 C 675.730469 302.917969 686.238281 300.015625 696.5625 296.449219 C 699.492188 300.796875 702.109375 305.328125 704.410156 310.042969 C 706.714844 314.753906 708.679688 319.605469 710.304688 324.589844 C 711.933594 329.578125 713.207031 334.652344 714.128906 339.816406 C 715.046875 344.976562 715.605469 350.179688 715.804688 355.421875 Z M 506.003906 296.589844 C 516.328125 300.15625 526.835938 303.058594 537.53125 305.289062 C 533.125 321.710938 530.789062 338.421875 530.519531 355.421875 L 486.761719 355.421875 C 486.964844 350.191406 487.53125 345.003906 488.453125 339.851562 C 489.378906 334.699219 490.652344 329.636719 492.28125 324.664062 C 493.90625 319.691406 495.871094 314.851562 498.167969 310.152344 C 500.46875 305.449219 503.078125 300.929688 506.003906 296.589844 Z M 530.519531 364.828125 C 530.78125 381.859375 533.117188 398.597656 537.53125 415.050781 C 526.835938 417.285156 516.328125 420.183594 506.003906 423.75 C 503.082031 419.402344 500.46875 414.875 498.171875 410.164062 C 495.871094 405.453125 493.910156 400.609375 492.285156 395.625 C 490.65625 390.644531 489.382812 385.574219 488.457031 380.417969 C 487.53125 375.257812 486.964844 370.0625 486.761719 364.828125 Z M 530.519531 364.828125 "/></g></svg>